# 3ds Max Wavefront OBJ Exporter v0.97b - (c)2007 guruware
# File Created: 27.11.2014 15:34:18

mtllib arch_4.mtl

#
# object Box001
#

v  -116.2576 -1.1132 -30.4569
v  -105.4077 12.9660 -44.5205
v  -76.4774 35.2418 -38.5447
v  -96.0491 23.9744 -24.5464
v  -59.9609 51.0752 -37.9259
v  -67.8511 44.1092 -28.8969
v  -39.1822 60.4049 -39.5519
v  -53.9309 62.3691 -31.4508
v  -20.1051 67.8593 -39.2566
v  -35.2447 62.8824 -28.0112
v  -2.6046 68.6570 -41.0102
v  -13.7225 70.0229 -31.4588
v  20.2949 69.0282 -42.2133
v  6.0143 67.4135 -25.4256
v  41.6178 68.3547 -40.3519
v  26.6861 59.8708 -32.0202
v  61.2391 50.9519 -32.4752
v  45.6620 51.1772 -33.0805
v  85.1226 37.0705 -43.7627
v  68.5156 43.2186 -32.3458
v  96.5923 18.9300 -42.4505
v  86.6862 25.8679 -24.9905
v  -90.3158 27.5442 -45.5125
v  -80.1207 46.4492 -45.5408
v  -45.5730 53.5499 -51.2992
v  -34.6047 65.4035 -48.9529
v  -17.3262 72.7441 -52.2475
v  2.8272 70.0048 -45.8617
v  27.3073 62.8210 -52.2746
v  56.6501 54.5911 -49.3172
v  64.0526 36.8725 -46.2939
v  88.7690 21.1213 -45.9956
v  107.8049 -2.1736 -55.0195
v  -116.7053 18.8868 -32.4173
v  -89.8879 43.9744 -31.5446
v  -83.7077 55.2418 -36.8945
v  -96.9926 32.9660 -39.5624
v  -78.1203 64.1093 -33.0997
v  -62.0862 71.0752 -43.6450
v  -55.6655 82.3691 -33.4795
v  -39.6486 80.4049 -36.7950
v  -32.7851 82.8824 -34.5463
v  -21.7087 87.8593 -42.9347
v  -19.9439 90.0229 -25.5879
v  -1.0198 88.6570 -42.5950
v  -0.1341 87.4135 -36.6785
v  18.6913 89.0282 -41.5281
v  27.0811 79.8708 -31.9155
v  41.1514 88.3547 -45.3722
v  47.6184 71.1772 -29.9674
v  59.1138 70.9519 -47.5809
v  64.7022 63.2185 -28.2251
v  77.8923 57.0705 -36.3380
v  84.3167 45.8679 -35.7104
v  105.0074 38.9300 -40.7502
v  -72.8797 66.4492 -49.5985
v  -99.6112 47.5442 -53.1507
v  -51.6420 73.5499 -55.1088
v  -28.5394 85.4035 -53.3467
v  -7.2112 92.7441 -44.5811
v  13.4493 90.0048 -53.3113
v  31.3418 82.8210 -51.3043
v  47.0391 74.5911 -43.7501
v  70.6886 56.8725 -47.3705
v  82.8544 41.1213 -53.1940
v  108.4351 17.8264 -53.7017
v  -101.8457 33.9744 -32.8475
v  -113.7565 8.8868 -33.2376
v  -77.5429 54.1093 -33.6769
v  -54.9374 72.3691 -35.4284
v  -35.9320 72.8824 -31.1512
v  -12.5458 80.0229 -32.2234
v  7.6081 77.4135 -33.1401
v  26.0069 69.8708 -34.1379
v  47.8938 61.1772 -28.5717
v  66.9405 53.2186 -30.2311
v  80.7329 35.8679 -33.0353
v  95.5508 28.9300 -36.7500
v  111.3554 7.8264 -48.0643
v  90.8282 31.1213 -51.1173
v  74.4056 46.8725 -52.8803
v  47.0439 64.5911 -44.3644
v  26.3780 72.8210 -50.0820
v  11.8322 80.0048 -53.2660
v  -8.2786 82.7441 -52.2651
v  -32.9250 75.4035 -44.2107
v  -56.2061 63.5499 -52.5487
v  -63.8720 56.4493 -57.6894
v  -87.7352 37.5442 -53.4908
v  -106.4492 22.9660 -36.6573
# 90 vertices

vn 0.6758 -0.7369 0.0116
vn 0.4623 -0.5809 -0.6699
vn 0.7053 -0.6997 -0.1136
vn 0.2797 -0.4563 0.8447
vn 0.4298 -0.8653 -0.2580
vn 0.5725 -0.8189 -0.0400
vn 0.3297 -0.6733 0.6617
vn 0.4311 -0.4583 0.7773
vn 0.0392 -0.9512 -0.3062
vn 0.1027 -0.9629 -0.2496
vn 0.0664 -0.9839 0.1658
vn 0.2453 -0.8942 0.3745
vn -0.0287 -0.9947 -0.0992
vn -0.1172 -0.9553 -0.2713
vn -0.1779 -0.6196 -0.7645
vn -0.3002 -0.2944 -0.9073
vn 0.0074 0.4855 -0.8742
vn 0.0118 0.1961 -0.9805
vn -0.5961 -0.4580 -0.6595
vn -0.4415 -0.8937 -0.0802
vn -0.6830 -0.6555 -0.3223
vn -0.6694 -0.7378 -0.0866
vn 0.1327 -0.0701 0.9887
vn 0.5208 -0.4160 -0.7454
vn 0.1732 -0.7429 -0.6466
vn 0.5234 -0.7880 -0.3243
vn 0.5797 -0.7158 0.3893
vn 0.5824 -0.6801 0.4453
vn 0.3950 -0.8997 -0.1858
vn 0.3617 -0.8865 -0.2886
vn 0.1420 -0.9341 -0.3275
vn 0.2114 -0.9309 -0.2980
vn -0.2634 -0.8044 -0.5325
vn -0.0394 -0.9723 -0.2306
vn -0.2263 -0.9046 0.3612
vn -0.0464 -0.8356 0.5473
vn -0.7206 -0.5778 -0.3833
vn -0.2892 -0.6730 0.6808
vn -0.5749 -0.6758 0.4614
vn -0.5677 -0.5907 0.5734
vn 0.3156 -0.1199 0.9413
vn 0.3154 -0.0973 0.9440
vn -0.2178 -0.5462 0.8088
vn -0.3713 -0.6337 0.6786
vn -0.7109 0.6001 -0.3666
vn -0.5923 0.6119 0.5241
vn -0.5876 0.6709 0.4523
vn -0.6979 0.5652 -0.4398
vn -0.6119 0.3011 -0.7314
vn -0.7132 0.5235 -0.4662
vn -0.3835 0.8011 -0.4596
vn -0.1757 0.1960 -0.9648
vn -0.3983 0.8973 -0.1904
vn -0.5073 0.8396 -0.1943
vn 0.0099 -0.0942 0.9955
vn -0.0450 0.6885 0.7239
vn 0.2815 -0.8945 -0.3472
vn -0.3120 -0.0134 -0.9500
vn -0.2000 0.9757 -0.0894
vn -0.2534 0.9002 -0.3543
vn -0.0761 0.9963 0.0398
vn -0.0106 0.8499 0.5269
vn 0.4623 0.0744 0.8836
vn 0.2510 -0.4212 0.8715
vn 0.0234 0.8909 -0.4536
vn 0.0322 0.9973 -0.0664
vn 0.1169 0.7613 0.6378
vn 0.1106 0.7845 0.6102
vn -0.1712 0.1269 -0.9770
vn 0.2101 0.7262 0.6546
vn 0.1585 0.2605 0.9524
vn 0.1097 0.6206 0.7765
vn -0.5050 -0.2542 -0.8248
vn 0.5285 0.4463 0.7221
vn 0.4495 0.8665 0.2170
vn 0.4703 0.8530 0.2263
vn 0.6356 0.7487 -0.1881
vn 0.5320 0.8389 0.1147
vn 0.5018 0.4526 0.7371
vn 0.1527 -0.2409 0.9585
vn 0.2917 0.5945 -0.7493
vn 0.5904 0.7987 0.1160
vn -0.7443 0.6144 0.2617
vn -0.4801 0.5504 0.6831
vn -0.3903 0.8957 0.2131
vn -0.4729 0.7788 -0.4120
vn -0.1606 0.9665 0.2003
vn -0.4060 0.9121 -0.0569
vn -0.3584 0.9335 -0.0137
vn -0.3441 0.9375 0.0522
vn -0.3952 0.2355 -0.8879
vn 0.4348 -0.5717 0.6957
vn 0.1684 0.9851 -0.0343
vn 0.2794 0.8306 0.4817
vn 0.3737 0.1480 -0.9156
vn 0.5272 0.6533 -0.5434
vn -0.3856 -0.3066 -0.8702
vn -0.3244 -0.2464 -0.9133
vn -0.7944 -0.6024 -0.0780
vn -0.7795 -0.6263 0.0043
vn 0.3959 0.6113 -0.6853
vn 0.5954 0.6637 -0.4527
vn -0.6524 0.3149 0.6894
vn -0.6230 0.7083 -0.3319
vn -0.7933 0.2946 0.5327
vn -0.2873 0.4350 0.8534
vn -0.1031 0.3459 0.9326
vn -0.1654 0.3776 0.9111
vn -0.1817 0.2995 0.9366
vn -0.2701 0.3323 0.9037
vn -0.2197 0.3139 0.9237
vn -0.0204 0.0892 0.9958
vn -0.2047 0.3242 0.9236
vn -0.1811 0.2833 0.9418
vn -0.2033 0.3396 0.9183
vn -0.1165 0.1465 0.9823
vn -0.0007 0.2395 0.9709
vn 0.1387 0.0593 0.9886
vn 0.0818 0.1344 0.9875
vn -0.0467 0.2963 0.9539
vn -0.0183 0.2718 0.9622
vn -0.1537 0.6188 0.7704
vn -0.0306 0.4525 0.8913
vn 0.2481 -0.0105 0.9687
vn 0.3044 0.4669 0.8303
vn 0.3675 0.2165 0.9045
vn 0.3443 0.3237 0.8813
vn 0.2721 0.5602 0.7824
vn -0.1634 0.0511 0.9852
vn -0.1250 -0.3845 0.9146
vn -0.1664 -0.0905 0.9819
vn -0.1786 -0.0001 0.9839
vn -0.0913 -0.3495 0.9325
vn -0.1085 -0.2220 0.9690
vn -0.1029 -0.2658 0.9585
vn -0.0848 -0.3938 0.9153
vn 0.0038 -0.0871 0.9962
vn 0.4557 0.7067 0.5412
vn 0.4111 0.4980 0.7635
vn 0.2126 -0.1106 0.9709
vn 0.6296 -0.3961 -0.6684
vn 0.0345 -0.0716 0.9968
vn 0.7851 -0.6177 0.0450
vn 0.1723 -0.1275 0.9768
vn 0.3110 -0.2525 -0.9162
vn 0.0996 -0.0840 0.9915
vn 0.2134 -0.1719 0.9617
vn 0.1782 -0.1447 0.9733
vn 0.0608 -0.0540 0.9967
vn -0.3558 0.0287 0.9341
vn 0.1774 -0.4496 0.8754
vn -0.0355 -0.2784 0.9598
vn -0.6646 0.4191 0.6186
vn -0.0836 0.1738 0.9812
vn -0.0345 -0.2133 0.9764
vn -0.0495 -0.1031 0.9934
vn -0.0940 0.2666 0.9592
vn -0.0267 0.0504 0.9984
vn 0.0036 -0.1959 0.9806
vn -0.0067 -0.1132 0.9935
vn -0.0371 0.1371 0.9899
vn 0.3309 0.0814 0.9401
vn 0.6428 0.4680 0.6064
vn 0.7832 0.0936 0.6147
vn 0.4646 0.7063 0.5341
vn -0.0878 -0.5399 0.8371
vn -0.0456 -0.4983 0.8658
vn 0.2843 0.1371 0.9489
vn 0.2888 0.1074 0.9513
vn 0.2861 0.1255 0.9500
vn 0.2818 0.1524 0.9473
vn 0.7353 -0.1544 0.6600
vn 0.7464 0.4587 -0.4823
vn 0.8434 0.2644 0.4678
vn 0.6384 -0.3246 0.6979
vn 0.2907 0.2563 -0.9218
vn -0.5047 -0.3016 -0.8089
vn -0.4511 -0.4477 -0.7721
vn -0.2220 -0.3655 -0.9039
vn -0.2345 -0.3710 -0.8985
vn -0.3129 -0.1265 -0.9413
vn 0.7116 0.3963 0.5801
vn 0.2480 0.2179 -0.9440
vn 0.3148 0.3727 -0.8729
vn 0.3490 0.5477 -0.7604
vn 0.1601 0.2256 -0.9610
vn 0.2319 0.3470 -0.9087
vn 0.4353 0.6991 -0.5672
vn 0.0094 -0.0491 -0.9987
vn -0.3321 -0.3496 -0.8761
vn -0.2050 -0.2394 -0.9490
vn 0.3156 0.2311 -0.9203
vn 0.0166 -0.4374 -0.8991
vn 0.2634 -0.2400 -0.9343
vn 0.1320 -0.3509 -0.9271
vn -0.1133 -0.5233 -0.8446
vn -0.3752 0.3690 -0.8503
vn -0.3476 0.4488 -0.8232
vn -0.3568 0.4235 -0.8327
vn -0.3828 0.3448 -0.8571
vn 0.1299 0.3123 -0.9411
vn 0.1601 0.0470 -0.9860
vn 0.1479 0.1671 -0.9748
vn 0.1155 0.4097 -0.9049
vn 0.2656 -0.3245 -0.9078
vn 0.0717 -0.8150 -0.5750
vn 0.1827 -0.5864 -0.7891
vn 0.3551 0.2656 -0.8963
vn 0.8403 -0.4536 -0.2968
vn 0.5698 -0.4836 -0.6645
vn -0.0099 0.1252 -0.9921
vn -0.5002 -0.5333 -0.6822
vn -0.5119 -0.5410 -0.6673
vn -0.4978 -0.5317 -0.6852
vn -0.4792 -0.2525 -0.8406
vn 0.1212 0.4165 -0.9010
vn -0.2616 0.0591 -0.9634
vn -0.1662 0.1566 -0.9736
vn 0.2847 0.5416 -0.7909
vn 0.3606 -0.0440 -0.9317
vn 0.1829 -0.2082 -0.9608
vn 0.0952 -0.1142 -0.9889
vn 0.1966 -0.0362 -0.9798
vn 0.1394 -0.0806 -0.9869
vn 0.0520 -0.1465 -0.9878
vn -0.2623 0.2444 -0.9335
vn 0.0430 0.6058 -0.7944
vn 0.0934 0.3290 -0.9397
vn 0.2921 -0.6745 -0.6780
vn 0.1377 -0.5458 -0.8265
vn 0.1207 0.5967 -0.7933
vn 0.4876 -0.4187 -0.7662
vn 0.4740 -0.4919 -0.7303
vn -0.1493 0.1379 -0.9791
vn -0.0340 0.6099 -0.7917
vn -0.1485 0.0943 -0.9844
vn -0.2273 0.4805 -0.8470
vn -0.3672 -0.3626 -0.8565
vn -0.5889 0.3904 -0.7077
vn -0.5838 -0.4730 -0.6599
vn -0.8197 0.2430 -0.5187
vn -0.8101 0.0399 -0.5850
vn -0.8179 0.1138 -0.5640
vn -0.8152 0.3032 -0.4936
vn -0.8294 0.3482 -0.4368
vn -0.5411 -0.6234 -0.5645
vn -0.4161 0.1077 -0.9029
vn -0.3786 -0.0102 -0.9255
vn -0.4264 0.1438 -0.8930
# 249 vertex normals

vt 1.0000 0.0000 0.0000
vt 1.0000 0.5000 0.0000
vt 0.9000 0.5000 0.0000
vt 0.9000 0.0000 0.0000
vt 0.8000 0.5000 0.0000
vt 0.8000 0.0000 0.0000
vt 0.7000 0.5000 0.0000
vt 0.7000 0.0000 0.0000
vt 0.6000 0.5000 0.0000
vt 0.6000 0.0000 0.0000
vt 0.5000 0.5000 0.0000
vt 0.5000 0.0000 0.0000
vt 0.4000 0.5000 0.0000
vt 0.4000 0.0000 0.0000
vt 0.3000 0.5000 0.0000
vt 0.3000 0.0000 0.0000
vt 0.2000 0.5000 0.0000
vt 0.2000 0.0000 0.0000
vt 0.1000 0.5000 0.0000
vt 0.1000 0.0000 0.0000
vt 0.0000 0.5000 0.0000
vt 0.0000 0.0000 0.0000
vt 1.0000 1.0000 0.0000
vt 0.9000 1.0000 0.0000
vt 0.8000 1.0000 0.0000
vt 0.7000 1.0000 0.0000
vt 0.6000 1.0000 0.0000
vt 0.5000 1.0000 0.0000
vt 0.4000 1.0000 0.0000
vt 0.3000 1.0000 0.0000
vt 0.2000 1.0000 0.0000
vt 0.1000 1.0000 0.0000
vt 0.0000 1.0000 0.0000
# 33 texture coords

g Box001
usemtl wire_153228214
s 3
f 1/1/1 2/2/2 3/3/3 4/4/4 
s 5
f 4/4/4 3/3/3 5/5/5 6/6/6 
s 6
f 6/6/6 5/5/5 7/7/7 8/8/8 
s 3
f 8/8/8 7/7/7 9/9/9 10/10/10 
s 5
f 10/10/10 9/9/9 11/11/11 12/12/12 
s 6
f 12/12/12 11/11/11 13/13/13 14/14/14 
s 3
f 14/14/14 13/13/13 15/15/15 16/16/16 
s 5
f 16/16/16 15/15/15 17/17/17 18/18/18 
s 6
f 18/18/18 17/17/17 19/19/19 20/20/20 
s 3
f 20/20/20 19/19/19 21/21/21 22/22/22 
s 10
f 2/2/2 23/23/23 24/24/24 3/3/3 
s 48
f 3/3/25 24/24/26 25/25/27 5/5/28 
s 24
f 5/5/28 25/25/27 26/26/29 7/7/30 
s 40
f 7/7/30 26/26/29 27/27/31 9/9/32 
s 48
f 9/9/32 27/27/31 28/28/33 11/11/34 
s 24
f 11/11/34 28/28/33 29/29/35 13/13/36 
s 40
f 13/13/36 29/29/35 30/30/37 15/15/38 
s 48
f 15/15/38 30/30/37 31/31/39 17/17/40 
s 24
f 17/17/40 31/31/39 32/32/41 19/19/42 
s 40
f 19/19/42 32/32/41 33/33/43 21/21/44 
s 3
f 34/22/45 35/20/46 36/19/47 37/21/48 
s 6
f 35/20/46 38/18/49 39/17/50 36/19/47 
s 9
f 38/18/51 40/16/52 41/15/53 39/17/54 
s 6
f 40/16/55 42/14/56 43/13/57 41/15/58 
s 9
f 42/14/59 44/12/60 45/11/61 43/13/62 
s 6
f 44/12/63 46/10/64 47/9/65 45/11/66 
s 9
f 46/10/67 48/8/68 49/7/69 47/9/70 
s 6
f 48/8/71 50/6/72 51/5/73 49/7/74 
s 9
f 50/6/75 52/4/76 53/3/77 51/5/78 
s 6
f 52/4/79 54/1/80 55/2/81 53/3/82 
s 9
f 37/21/48 36/19/47 56/32/83 57/33/84 
s 48
f 36/19/85 39/17/54 58/31/86 56/32/87 
s 33
f 39/17/54 41/15/53 59/30/88 58/31/86 
s 18
f 41/15/58 43/13/57 60/29/89 59/30/90 
s 33
f 43/13/62 45/11/61 61/28/91 60/29/92 
s 18
f 45/11/66 47/9/65 62/27/93 61/28/94 
s 33
f 47/9/70 49/7/69 63/26/95 62/27/96 
s 18
f 49/7/74 51/5/73 64/25/97 63/26/98 
s 33
f 51/5/78 53/3/77 65/24/99 64/25/100 
s 18
f 53/3/82 55/2/81 66/23/101 65/24/102 
s 12
f 1/22/103 4/20/4 67/19/104 68/21/105 
s 48
f 4/20/106 6/18/107 69/17/108 67/19/104 
s 72
f 6/18/109 8/16/110 70/15/111 69/17/112 
s 48
f 8/16/113 10/14/114 71/13/115 70/15/116 
s 72
f 10/14/117 12/12/118 72/11/119 71/13/120 
s 48
f 12/12/121 14/10/122 73/9/123 72/11/124 
s 72
f 14/10/125 16/8/126 74/7/127 73/9/128 
s 48
f 16/8/129 18/6/130 75/5/131 74/7/132 
s 72
f 18/6/133 20/4/134 76/3/135 75/5/136 
s 48
f 20/4/137 22/1/138 77/2/139 76/3/140 
s 24
f 68/21/105 67/19/104 35/32/141 34/33/142 
s 192
f 67/19/143 69/17/112 38/31/144 35/32/145 
s 768
f 69/17/146 70/15/147 40/30/148 38/31/149 
s 20
f 70/15/116 71/13/115 42/29/56 40/30/55 
s 384
f 71/13/150 72/11/151 44/28/152 42/29/153 
s 20
f 72/11/124 73/9/123 46/27/64 44/28/63 
s 384
f 73/9/154 74/7/155 48/26/156 46/27/157 
s 20
f 74/7/132 75/5/131 50/25/72 48/26/71 
s 384
f 75/5/158 76/3/159 52/24/160 50/25/161 
s 17
f 76/3/140 77/2/139 54/23/162 52/24/76 
s 12
f 22/22/163 21/12/44 78/11/164 77/21/165 
s 48
f 21/12/44 33/1/43 79/2/166 78/11/167 
s 192
f 77/21/168 78/11/169 55/28/170 54/33/171 
s 257
f 78/11/172 79/2/173 66/23/174 55/28/175 
s 3
f 33/22/176 32/20/177 80/19/178 79/21/173 
s 6
f 32/20/177 31/18/179 81/17/180 80/19/178 
s 65
f 31/18/181 30/16/182 82/15/183 81/17/184 
s 6
f 30/16/185 29/14/186 83/13/187 82/15/188 
s 65
f 29/14/189 28/12/190 84/11/191 83/13/192 
s 6
f 28/12/193 27/10/194 85/9/195 84/11/196 
s 65
f 27/10/197 26/8/198 86/7/199 85/9/200 
s 6
f 26/8/201 25/6/202 87/5/203 86/7/204 
s 65
f 25/6/205 24/4/206 88/3/207 87/5/208 
s 36
f 24/4/26 23/1/209 89/2/210 88/3/211 
s 12
f 79/21/212 80/19/178 65/32/213 66/33/214 
s 96
f 80/19/215 81/17/184 64/31/100 65/32/99 
s 136
f 81/17/216 82/15/217 63/30/218 64/31/219 
s 288
f 82/15/220 83/13/221 62/29/96 63/30/95 
s 136
f 83/13/222 84/11/223 61/28/224 62/29/225 
s 288
f 84/11/226 85/9/227 60/27/92 61/28/91 
s 136
f 85/9/228 86/7/229 59/26/230 60/27/231 
s 384
f 86/7/229 87/5/232 58/25/233 59/26/230 
s 528
f 87/5/234 88/3/235 56/24/87 58/25/86 
s 6
f 88/3/211 89/2/210 57/23/236 56/24/237 
s 17
f 23/22/238 2/12/2 90/11/239 89/21/240 
s 96
f 2/12/241 1/1/242 68/2/243 90/11/244 
s 144
f 89/21/240 90/11/239 37/28/245 57/33/246 
s 260
f 90/11/247 68/2/105 34/23/248 37/28/249 
# 88 polygons

