# 3ds Max Wavefront OBJ Exporter v0.97b - (c)2007 guruware
# File Created: 27.11.2014 15:33:38

mtllib arch_3.mtl

#
# object Box001
#

v  -116.7663 -3.9121 -38.1958
v  -98.8682 25.9161 -37.2605
v  -78.7581 68.0051 -36.9710
v  -85.7277 51.6135 -26.1823
v  -51.7636 92.1004 -43.7737
v  -67.2852 76.4584 -30.7821
v  -31.4006 111.8931 -43.5508
v  -41.7900 105.2352 -25.2220
v  0.1197 114.3978 -43.7344
v  -14.2539 109.9860 -29.6155
v  19.0994 119.0688 -41.2938
v  9.7678 120.4753 -31.5901
v  49.2364 98.2034 -37.5759
v  34.8393 107.3500 -29.2376
v  72.7419 62.5218 -41.8966
v  58.4900 77.5314 -33.6624
v  103.1318 27.9502 -45.7132
v  85.1611 41.1751 -34.7566
v  -97.0541 46.0269 -50.2027
v  -69.5050 80.8910 -53.7762
v  -49.3085 102.3312 -46.5579
v  -17.6365 116.8833 -53.6640
v  7.7077 121.4782 -51.4860
v  25.7406 107.5029 -43.6056
v  57.9042 76.6111 -50.8146
v  89.8436 46.4267 -52.6303
v  109.7254 -1.0059 -53.2765
v  -115.2260 16.0879 -29.3291
v  -93.7683 71.6135 -27.9899
v  -83.0004 88.0051 -42.3654
v  -102.4443 45.9161 -46.0049
v  -63.0329 96.4584 -36.4695
v  -55.1059 112.1004 -41.8392
v  -40.8122 125.2352 -32.6255
v  -28.7881 131.8930 -44.7486
v  -16.9966 129.9860 -33.2790
v  -0.6329 134.3978 -42.9818
v  8.4684 140.4753 -27.5787
v  21.7119 139.0687 -42.5837
v  32.7424 127.3499 -28.1039
v  45.8941 118.2034 -46.2748
v  63.8562 97.5314 -29.1985
v  68.4996 82.5218 -46.6538
v  85.8125 61.1751 -30.8516
v  99.5557 47.9502 -46.3344
v  -61.9753 100.8910 -53.3781
v  -97.3440 66.0269 -48.1454
v  -46.3643 122.3312 -53.2719
v  -18.1429 136.8833 -61.9987
v  6.1576 141.4782 -51.7049
v  27.7242 127.5029 -48.6672
v  62.0922 96.6111 -51.9618
v  83.9266 66.4267 -52.9798
v  115.2072 18.9941 -44.6314
v  -92.2639 61.6135 -29.5819
v  -114.6176 6.0879 -28.7215
v  -67.0025 86.4584 -27.8924
v  -42.4543 115.2352 -28.5724
v  -14.2356 119.9860 -30.7447
v  10.7753 130.4752 -36.5056
v  34.0403 117.3500 -30.2272
v  61.0288 87.5314 -35.3019
v  85.0164 51.1751 -35.1026
v  100.9391 37.9502 -39.2729
v  104.3944 8.9941 -48.7792
v  78.1509 56.4267 -50.8092
v  57.3978 86.6111 -54.4021
v  33.5620 117.5029 -50.8465
v  5.8698 131.4782 -54.6329
v  -20.7817 126.8833 -44.1789
v  -37.7882 112.3312 -53.2157
v  -63.3635 90.8910 -51.9345
v  -91.6893 56.0269 -51.8534
v  -101.0609 35.9161 -38.4932
# 74 vertices

vn 0.8666 -0.4612 0.1905
vn -0.2186 -0.0864 0.9720
vn 0.7400 -0.5981 -0.3076
vn 0.6434 -0.5551 0.5271
vn 0.6995 -0.7129 -0.0490
vn 0.7807 -0.5665 0.2638
vn 0.3052 -0.9349 -0.1813
vn 0.5716 -0.8197 0.0371
vn 0.2106 -0.9724 -0.1008
vn 0.1816 -0.9792 -0.0904
vn -0.2695 -0.9435 -0.1929
vn 0.1468 -0.9378 0.3145
vn -0.6316 -0.4400 -0.6383
vn -0.5309 -0.8470 0.0268
vn -0.7556 -0.6344 -0.1632
vn -0.7653 -0.5676 -0.3036
vn -0.3174 -0.8063 0.4992
vn -0.6165 -0.7157 0.3282
vn 0.5326 -0.4915 -0.6890
vn 0.8629 -0.4935 -0.1087
vn 0.6854 -0.6686 -0.2885
vn -0.0760 -0.0043 -0.9971
vn 0.0302 -0.3363 -0.9413
vn 0.0202 -0.3172 -0.9482
vn 0.2563 -0.9516 -0.1697
vn 0.5545 -0.7541 0.3520
vn -0.0684 -0.7320 -0.6778
vn -0.0312 -0.8190 -0.5730
vn 0.0186 -0.2859 0.9581
vn -0.1195 -0.2858 0.9508
vn -0.5067 -0.5836 0.6346
vn -0.5248 -0.6034 0.6005
vn -0.7236 -0.3352 -0.6033
vn -0.7516 -0.4249 -0.5046
vn -0.9276 -0.3093 -0.2096
vn -0.8891 -0.2160 0.4035
vn -0.9150 0.3964 -0.0751
vn -0.8888 0.4358 -0.1420
vn -0.7675 0.6019 -0.2205
vn -0.8952 0.4323 0.1087
vn -0.0026 0.3259 0.9454
vn -0.3427 0.5800 0.7390
vn -0.6163 0.6860 0.3867
vn -0.7089 0.5974 -0.3750
vn -0.6340 0.7605 -0.1403
vn -0.4726 0.6736 0.5682
vn -0.0794 0.5804 0.8105
vn -0.1336 0.8416 0.5233
vn -0.1177 0.8505 0.5126
vn -0.1388 0.9250 0.3539
vn -0.2648 0.9481 -0.1762
vn -0.2917 0.8936 -0.3412
vn -0.1543 0.6568 -0.7381
vn -0.0750 0.9829 0.1681
vn 0.1789 -0.0026 0.9839
vn 0.1201 0.5982 0.7923
vn 0.3047 0.5360 -0.7873
vn 0.6537 0.6930 0.3040
vn 0.7943 0.6030 0.0739
vn 0.6161 0.7788 -0.1177
vn 0.7418 0.5120 0.4331
vn 0.7978 0.5050 0.3294
vn 0.7710 0.6138 -0.1698
vn 0.8183 0.4798 0.3165
vn 0.0614 0.0058 -0.9981
vn 0.7178 0.6272 -0.3024
vn -0.7203 0.4607 -0.5185
vn 0.0570 0.0914 0.9942
vn -0.6977 0.6469 -0.3077
vn -0.4037 0.9146 -0.0225
vn -0.3080 0.1818 -0.9338
vn -0.5465 0.8370 0.0269
vn 0.1281 0.9045 -0.4069
vn -0.3215 0.5911 -0.7398
vn 0.0932 0.8330 -0.5453
vn 0.2961 0.6157 0.7302
vn 0.1135 0.2336 -0.9657
vn 0.4440 0.5624 -0.6975
vn 0.7400 0.4830 0.4681
vn 0.8081 0.5814 0.0944
vn 0.5993 0.4189 -0.6822
vn 0.7369 0.5541 0.3872
vn 0.8296 -0.3657 0.4219
vn 0.0142 0.0027 0.9999
vn 0.8859 -0.4246 0.1868
vn -0.1311 0.1187 0.9842
vn 0.5358 -0.2483 0.8070
vn 0.2876 -0.1079 0.9516
vn 0.1625 -0.1595 0.9737
vn -0.4693 0.2523 0.8462
vn -0.3538 0.1742 0.9189
vn -0.2036 0.2421 0.9486
vn 0.0458 0.2742 0.9606
vn 0.1379 0.1109 0.9842
vn 0.0697 0.2096 0.9753
vn -0.0001 0.3301 0.9439
vn 0.1036 0.2010 0.9741
vn -0.1227 0.4477 0.8857
vn -0.0431 0.3654 0.9299
vn 0.1790 0.1101 0.9777
vn -0.0027 0.3823 0.9240
vn -0.0436 0.0949 0.9945
vn -0.1481 0.0357 0.9883
vn -0.2684 -0.2607 0.9274
vn 0.3056 0.1146 0.9453
vn 0.2849 0.0842 0.9549
vn 0.2870 0.0873 0.9539
vn 0.3079 0.1180 0.9441
vn 0.1642 0.1117 0.9801
vn 0.0896 0.0357 0.9953
vn -0.0366 -0.0400 0.9985
vn -0.3390 -0.2272 0.9130
vn 0.2472 -0.0894 0.9648
vn -0.1862 0.0483 0.9813
vn 0.1694 0.0524 0.9841
vn -0.4883 0.5444 0.6821
vn 0.3377 -0.0982 0.9361
vn -0.7357 0.5459 0.4009
vn -0.4446 0.3982 0.8024
vn -0.5680 0.4664 0.6782
vn -0.7752 0.5594 0.2934
vn -0.0958 -0.0475 0.9943
vn 0.4011 -0.5568 0.7274
vn 0.2642 -0.4265 0.8650
vn -0.2789 0.1628 0.9464
vn -0.1994 -0.2509 0.9473
vn -0.3140 -0.4284 0.8473
vn -0.3028 -0.4110 0.8599
vn -0.1838 -0.2269 0.9564
vn -0.4812 -0.3144 0.8183
vn 0.1689 -0.4213 0.8910
vn 0.2820 0.0373 0.9587
vn -0.5548 0.0967 -0.8264
vn 0.4325 0.6196 0.6550
vn 0.5795 -0.1661 0.7979
vn 0.6209 0.3405 0.7060
vn 0.5153 -0.3697 0.7732
vn 0.6882 0.3363 0.6429
vn 0.8767 0.3881 0.2842
vn 0.0656 -0.2254 0.9721
vn 0.7627 0.4401 0.4739
vn 0.8534 0.4585 0.2480
vn 0.2348 0.0946 0.9674
vn 0.7368 0.6166 0.2773
vn -0.3623 -0.3309 -0.8713
vn -0.3412 -0.3145 -0.8858
vn -0.4969 -0.2964 -0.8156
vn -0.4480 -0.2673 -0.8531
vn -0.4562 -0.2722 -0.8472
vn -0.5219 -0.3113 -0.7941
vn -0.0896 -0.4765 -0.8746
vn 0.2123 -0.2576 -0.9426
vn 0.0431 -0.3878 -0.9207
vn -0.1395 -0.5069 -0.8507
vn -0.2597 -0.0662 -0.9634
vn -0.0597 0.6770 -0.7336
vn -0.1350 0.4685 -0.8731
vn -0.2933 -0.3356 -0.8952
vn -0.1349 0.5137 -0.8473
vn 0.1299 -0.6488 -0.7498
vn 0.0847 -0.4619 -0.8829
vn -0.1636 0.6513 -0.7409
vn 0.6494 -0.7549 -0.0915
vn 0.4200 -0.0916 -0.9029
vn 0.4716 -0.1730 -0.8647
vn 0.6406 -0.7667 -0.0432
vn 0.2301 -0.2774 -0.9328
vn 0.0789 -0.1312 -0.9882
vn -0.0762 -0.0653 -0.9950
vn 0.2675 0.0249 -0.9632
vn -0.0459 -0.0891 -0.9950
vn 0.3211 0.0452 -0.9460
vn -0.0914 -0.0650 -0.9937
vn 0.2981 0.0919 -0.9501
vn 0.1915 0.0484 -0.9803
vn -0.1883 -0.1033 -0.9767
vn 0.0969 0.2068 -0.9736
vn 0.4344 0.4265 -0.7934
vn 0.3314 0.3474 -0.8772
vn 0.2604 0.2644 -0.9286
vn 0.2797 0.2868 -0.9162
vn 0.3782 0.4025 -0.8336
vn 0.2567 -0.1589 -0.9533
vn -0.0440 -0.8684 -0.4939
vn 0.3511 -0.6730 -0.6510
vn 0.2868 0.2407 -0.9273
vn 0.3614 -0.2220 -0.9056
vn 0.3045 -0.8492 -0.4315
vn 0.0187 -0.0254 -0.9995
vn 0.0791 -0.1532 -0.9850
vn -0.2371 0.1786 -0.9549
vn -0.0065 -0.1420 -0.9898
vn -0.9069 0.4183 0.0509
vn -0.7865 -0.2642 -0.5583
vn -0.5593 0.0159 -0.8288
vn -0.3856 -0.0892 -0.9183
vn -0.8025 0.4921 -0.3374
vn -0.7893 0.4444 -0.4238
vn -0.2855 -0.1787 -0.9416
vn -0.0171 -0.4870 -0.8733
vn -0.5031 0.0357 -0.8635
vn 0.2186 -0.5337 -0.8169
vn -0.4081 -0.1263 -0.9041
vn 0.2670 -0.5549 -0.7879
# 204 vertex normals

vt 1.0000 0.0000 0.0000
vt 1.0000 0.5000 0.0000
vt 0.8750 0.5000 0.0000
vt 0.8750 0.0000 0.0000
vt 0.7500 0.5000 0.0000
vt 0.7500 0.0000 0.0000
vt 0.6250 0.5000 0.0000
vt 0.6250 0.0000 0.0000
vt 0.5000 0.5000 0.0000
vt 0.5000 0.0000 0.0000
vt 0.3750 0.5000 0.0000
vt 0.3750 0.0000 0.0000
vt 0.2500 0.5000 0.0000
vt 0.2500 0.0000 0.0000
vt 0.1250 0.5000 0.0000
vt 0.1250 0.0000 0.0000
vt 0.0000 0.5000 0.0000
vt 0.0000 0.0000 0.0000
vt 1.0000 1.0000 0.0000
vt 0.8750 1.0000 0.0000
vt 0.7500 1.0000 0.0000
vt 0.6250 1.0000 0.0000
vt 0.5000 1.0000 0.0000
vt 0.3750 1.0000 0.0000
vt 0.2500 1.0000 0.0000
vt 0.1250 1.0000 0.0000
vt 0.0000 1.0000 0.0000
# 27 texture coords

g Box001
usemtl wire_153228214
s 3
f 1/1/1 2/2/2 3/3/3 4/4/4 
s 5
f 4/4/4 3/3/3 5/5/5 6/6/6 
s 6
f 6/6/6 5/5/5 7/7/7 8/8/8 
s 3
f 8/8/8 7/7/7 9/9/9 10/10/10 
s 5
f 10/10/10 9/9/9 11/11/11 12/12/12 
s 6
f 12/12/12 11/11/11 13/13/13 14/14/14 
s 3
f 14/14/14 13/13/13 15/15/15 16/16/16 
s 5
f 16/16/16 15/15/15 17/17/17 18/18/18 
s 10
f 2/2/2 19/19/19 20/20/20 3/3/3 
s 48
f 3/3/21 20/20/22 21/21/23 5/5/24 
s 24
f 5/5/24 21/21/23 22/22/25 7/7/26 
s 40
f 7/7/26 22/22/25 23/23/27 9/9/28 
s 48
f 9/9/28 23/23/27 24/24/29 11/11/30 
s 24
f 11/11/30 24/24/29 25/25/31 13/13/32 
s 40
f 13/13/32 25/25/31 26/26/33 15/15/34 
s 48
f 15/15/34 26/26/33 27/27/35 17/17/36 
s 3
f 28/18/37 29/16/38 30/15/39 31/17/40 
s 6
f 29/16/38 32/14/41 33/13/42 30/15/39 
s 9
f 32/14/43 34/12/44 35/11/45 33/13/46 
s 6
f 34/12/47 36/10/48 37/9/49 35/11/50 
s 9
f 36/10/51 38/8/52 39/7/53 37/9/54 
s 6
f 38/8/55 40/6/56 41/5/57 39/7/58 
s 9
f 40/6/59 42/4/60 43/3/61 41/5/62 
s 6
f 42/4/63 44/1/64 45/2/65 43/3/66 
s 9
f 31/17/40 30/15/39 46/26/67 47/27/68 
s 48
f 30/15/69 33/13/46 48/25/70 46/26/71 
s 33
f 33/13/46 35/11/45 49/24/72 48/25/70 
s 18
f 35/11/50 37/9/49 50/23/73 49/24/74 
s 33
f 37/9/54 39/7/53 51/22/75 50/23/76 
s 18
f 39/7/58 41/5/57 52/21/77 51/22/78 
s 33
f 41/5/62 43/3/61 53/20/79 52/21/80 
s 18
f 43/3/66 45/2/65 54/19/81 53/20/82 
s 12
f 1/18/83 4/16/4 55/15/84 56/17/85 
s 48
f 4/16/86 6/14/87 57/13/88 55/15/84 
s 72
f 6/14/89 8/12/90 58/11/91 57/13/92 
s 48
f 8/12/93 10/10/94 59/9/95 58/11/96 
s 72
f 10/10/97 12/8/98 60/7/99 59/9/100 
s 48
f 12/8/101 14/6/102 61/5/103 60/7/104 
s 72
f 14/6/105 16/4/106 62/3/107 61/5/108 
s 48
f 16/4/109 18/1/110 63/2/111 62/3/112 
s 24
f 56/17/85 55/15/84 29/26/113 28/27/114 
s 192
f 55/15/115 57/13/92 32/25/116 29/26/117 
s 768
f 57/13/118 58/11/119 34/24/120 32/25/121 
s 20
f 58/11/96 59/9/95 36/23/48 34/24/47 
s 384
f 59/9/122 60/7/123 38/22/124 36/23/125 
s 20
f 60/7/104 61/5/103 40/21/56 38/22/55 
s 384
f 61/5/126 62/3/127 42/20/128 40/21/129 
s 17
f 62/3/112 63/2/111 44/19/130 42/20/60 
s 6
f 18/18/18 17/10/17 64/9/131 63/17/132 
s 24
f 17/10/36 27/1/35 65/2/133 64/9/134 
s 72
f 63/17/135 64/9/134 45/23/136 44/27/137 
s 33
f 64/9/138 65/2/139 54/19/140 45/23/141 
s 3
f 27/18/142 26/16/143 66/15/144 65/17/139 
s 6
f 26/16/143 25/14/145 67/13/146 66/15/144 
s 65
f 25/14/147 24/12/148 68/11/149 67/13/150 
s 6
f 24/12/151 23/10/152 69/9/153 68/11/154 
s 65
f 23/10/155 22/8/156 70/7/157 69/9/158 
s 6
f 22/8/159 21/6/160 71/5/161 70/7/162 
s 65
f 21/6/163 20/4/164 72/3/165 71/5/166 
s 36
f 20/4/22 19/1/167 73/2/168 72/3/169 
s 68
f 65/17/170 66/15/144 53/26/171 54/27/172 
s 136
f 66/15/173 67/13/174 52/25/175 53/26/176 
s 272
f 67/13/177 68/11/178 51/24/78 52/25/77 
s 136
f 68/11/179 69/9/180 50/23/181 51/24/182 
s 272
f 69/9/183 70/7/184 49/22/74 50/23/73 
s 136
f 70/7/185 71/5/186 48/21/187 49/22/188 
s 272
f 71/5/189 72/3/190 46/20/71 48/21/70 
s 6
f 72/3/169 73/2/168 47/19/191 46/20/192 
s 17
f 19/18/193 2/10/2 74/9/194 73/17/195 
s 96
f 2/10/196 1/1/197 56/2/198 74/9/199 
s 144
f 73/17/195 74/9/194 31/23/200 47/27/201 
s 260
f 74/9/202 56/2/85 28/19/203 31/23/204 
# 72 polygons

