# 3ds Max Wavefront OBJ Exporter v0.97b - (c)2007 guruware
# File Created: 27.11.2014 15:38:03

mtllib pillar_4.mtl

#
# object Box001
#

v  10.7157 -8.6615 -27.8954
v  19.1343 9.5806 -41.5921
v  31.0660 4.1884 -35.9865
v  22.9090 -3.5393 -22.2048
v  43.1399 -0.3188 -31.2991
v  34.9624 -0.6462 -17.5358
v  8.6549 -2.9071 -55.5402
v  20.7219 -5.3185 -49.8795
v  32.8430 -5.2714 -45.1396
v  9.4532 141.0280 -15.2509
v  25.5548 124.0400 -8.2043
v  21.4723 164.9162 -26.6155
v  5.3658 127.3284 -33.6482
v  41.6557 142.3971 -20.0974
v  37.5786 144.7893 -38.4967
v  25.0937 156.0540 -45.0141
v  8.9769 124.8676 -52.0638
v  41.2002 126.7304 -56.8993
v  31.4646 13.6062 -17.7034
v  18.9533 16.0591 -15.8616
v  43.9923 13.2586 -19.1008
v  24.0599 32.5191 -13.4414
v  11.1531 35.1663 -13.9886
v  37.0429 30.0526 -18.9375
v  26.0378 49.0772 -12.0458
v  12.6380 51.5555 -18.7647
v  39.4425 49.7582 -14.8338
v  29.3678 62.5945 -14.5409
v  15.4510 69.0633 -21.4058
v  43.2527 64.1242 -14.4984
v  28.4847 76.2969 -16.9549
v  14.0618 87.4159 -20.1195
v  42.8553 80.6143 -8.1891
v  20.3580 96.0187 -16.5707
v  5.4263 94.0752 -19.2092
v  35.3190 98.3482 -11.8807
v  29.1429 111.5032 -10.6946
v  13.6399 122.0149 -15.3031
v  44.6281 114.0081 -13.7375
v  39.6133 12.6163 -33.4163
v  36.8154 17.8043 -47.6542
v  36.2497 27.7408 -33.7781
v  39.2702 33.7587 -48.5438
v  35.7873 47.5325 -30.1411
v  45.5437 45.5549 -45.4998
v  39.3258 66.4814 -30.3784
v  40.2890 68.1340 -46.2440
v  42.8427 79.0372 -24.6169
v  40.8673 89.9959 -41.0629
v  43.5522 93.2750 -28.9507
v  39.8277 107.5790 -45.9957
v  38.8135 120.7937 -31.4376
v  43.8050 112.0107 -49.1540
v  24.3465 14.2762 -46.3252
v  11.8340 14.5845 -44.4283
v  26.3378 36.6129 -43.0092
v  13.3501 29.4828 -43.5626
v  32.0770 54.5730 -42.6860
v  18.6421 43.9428 -49.4967
v  26.4092 70.5924 -46.3635
v  12.5254 66.9366 -53.1453
v  26.5104 87.8255 -49.9581
v  12.1663 90.8702 -52.9383
v  24.9226 106.4482 -50.7548
v  10.0146 102.8027 -53.3117
v  28.2984 131.1604 -46.1424
v  12.7928 117.0701 -50.7283
v  14.6606 24.2172 -30.1561
v  10.2882 32.9034 -28.7278
v  8.8328 43.4492 -34.0835
v  11.4567 62.6591 -37.3079
v  13.9947 87.5286 -36.5772
v  13.6512 111.0265 -36.2819
v  7.8107 121.5727 -33.0087
# 74 vertices

vn 0.2607 -0.7752 -0.5754
vn 0.0365 -0.9648 -0.2605
vn -0.4955 -0.4619 0.7356
vn -0.3715 -0.6807 0.6314
vn -0.6067 0.5692 0.5549
vn 0.4891 0.6169 0.6167
vn -0.8371 0.4545 -0.3043
vn 0.7210 0.6192 -0.3110
vn -0.1110 -0.3262 0.9387
vn -0.1298 -0.0202 0.9913
vn 0.0199 -0.1515 0.9883
vn 0.2592 -0.0155 0.9657
vn -0.2416 0.1241 0.9624
vn 0.2838 -0.1772 0.9424
vn -0.3745 0.2231 0.9000
vn 0.0957 0.0525 0.9940
vn -0.3281 0.0100 0.9446
vn -0.2694 -0.1345 0.9536
vn -0.2514 -0.2061 0.9457
vn -0.3992 -0.0863 0.9128
vn -0.2604 -0.1140 0.9587
vn -0.0368 -0.1069 0.9936
vn -0.4791 -0.1872 0.8576
vn 0.3444 0.1429 0.9279
vn 0.9743 -0.1814 0.1338
vn 0.9041 -0.0655 -0.4222
vn 0.9335 0.3004 -0.1960
vn 0.9994 0.0300 0.0193
vn 0.9895 -0.0205 -0.1429
vn 0.9047 -0.2408 0.3514
vn 0.9501 -0.2089 -0.2319
vn 0.9449 0.0467 0.3239
vn 0.9909 -0.0557 -0.1222
vn 0.9930 -0.0963 -0.0687
vn 0.9508 0.2492 0.1839
vn 0.9779 -0.0491 -0.2035
vn 0.9930 -0.0987 0.0642
vn 0.9987 0.0311 0.0413
vn 0.9651 0.0105 -0.2618
vn 0.9813 0.1455 0.1259
vn 0.1374 -0.0003 -0.9905
vn 0.1786 0.3333 -0.9257
vn -0.2620 0.0913 -0.9607
vn -0.0840 0.1190 -0.9893
vn -0.2149 0.1950 -0.9570
vn 0.4355 -0.2954 -0.8503
vn -0.1621 -0.1575 -0.9741
vn 0.4573 -0.0288 -0.8888
vn 0.3043 0.0333 -0.9520
vn 0.3274 -0.0755 -0.9419
vn 0.4305 -0.1105 -0.8958
vn 0.1863 -0.0148 -0.9824
vn 0.0755 0.0307 -0.9967
vn 0.1370 0.1589 -0.9778
vn -0.6680 -0.2169 -0.7119
vn 0.2767 0.0533 -0.9595
vn -0.5841 -0.4819 0.6532
vn -0.9925 0.1166 -0.0363
vn -0.9910 -0.1247 0.0479
vn -0.9097 -0.4078 0.0788
vn -0.9208 -0.0341 -0.3885
vn -0.9894 0.0521 0.1357
vn -0.9296 -0.1329 -0.3439
vn -0.9717 0.1700 0.1637
vn -0.9985 0.0439 0.0340
vn -0.9925 0.0208 0.1205
vn -0.9829 -0.0688 0.1709
vn -0.9019 -0.2546 -0.3490
vn -0.9922 -0.1241 0.0070
vn -0.9970 0.0682 -0.0363
vn -0.8929 -0.4313 -0.1292
vn -0.9097 -0.2354 0.3421
# 72 vertex normals

vt 1.0000 0.0000 0.0000
vt 1.0000 0.5000 0.0000
vt 0.5000 0.5000 0.0000
vt 0.5000 0.0000 0.0000
vt 0.0000 0.5000 0.0000
vt 0.0000 0.0000 0.0000
vt 1.0000 1.0000 0.0000
vt 0.5000 1.0000 0.0000
vt 0.0000 1.0000 0.0000
vt 0.5000 0.1250 0.0000
vt 0.0000 0.1250 0.0000
vt 1.0000 0.1250 0.0000
vt 0.5000 0.2500 0.0000
vt 0.0000 0.2500 0.0000
vt 1.0000 0.2500 0.0000
vt 0.5000 0.3750 0.0000
vt 0.0000 0.3750 0.0000
vt 1.0000 0.3750 0.0000
vt 0.5000 0.6250 0.0000
vt 0.0000 0.6250 0.0000
vt 1.0000 0.6250 0.0000
vt 0.5000 0.7500 0.0000
vt 0.0000 0.7500 0.0000
vt 1.0000 0.7500 0.0000
vt 0.5000 0.8750 0.0000
vt 0.0000 0.8750 0.0000
vt 1.0000 0.8750 0.0000
# 27 texture coords

g Box001
usemtl 01___Default
s off
f 1/1/1 2/2/1 3/3/1 4/4/1 
f 4/4/2 3/3/2 5/5/2 6/6/2 
f 2/2/3 7/7/3 8/8/3 3/3/3 
f 3/3/4 8/8/4 9/9/4 5/5/4 
f 10/6/5 11/4/5 12/3/5 13/5/5 
f 11/4/6 14/1/6 15/2/6 12/3/6 
f 13/5/7 12/3/7 16/8/7 17/9/7 
f 12/3/8 15/2/8 18/7/8 16/8/8 
f 1/6/9 4/4/9 19/10/9 20/11/9 
f 4/4/10 6/1/10 21/12/10 19/10/10 
f 20/11/11 19/10/11 22/13/11 23/14/11 
f 19/10/12 21/12/12 24/15/12 22/13/12 
f 23/14/13 22/13/13 25/16/13 26/17/13 
f 22/13/14 24/15/14 27/18/14 25/16/14 
f 26/17/15 25/16/15 28/3/15 29/5/15 
f 25/16/16 27/18/16 30/2/16 28/3/16 
f 29/5/17 28/3/17 31/19/17 32/20/17 
f 28/3/18 30/2/18 33/21/18 31/19/18 
f 32/20/19 31/19/19 34/22/19 35/23/19 
f 31/19/20 33/21/20 36/24/20 34/22/20 
f 35/23/21 34/22/21 37/25/21 38/26/21 
f 34/22/22 36/24/22 39/27/22 37/25/22 
f 38/26/23 37/25/23 11/8/23 10/9/23 
f 37/25/24 39/27/24 14/7/24 11/8/24 
f 6/6/25 5/4/25 40/10/25 21/11/25 
f 5/4/26 9/1/26 41/12/26 40/10/26 
f 21/11/27 40/10/27 42/13/27 24/14/27 
f 40/10/28 41/12/28 43/15/28 42/13/28 
f 24/14/29 42/13/29 44/16/29 27/17/29 
f 42/13/30 43/15/30 45/18/30 44/16/30 
f 27/17/31 44/16/31 46/3/31 30/5/31 
f 44/16/32 45/18/32 47/2/32 46/3/32 
f 30/5/33 46/3/33 48/19/33 33/20/33 
f 46/3/34 47/2/34 49/21/34 48/19/34 
f 33/20/35 48/19/35 50/22/35 36/23/35 
f 48/19/36 49/21/36 51/24/36 50/22/36 
f 36/23/37 50/22/37 52/25/37 39/26/37 
f 50/22/38 51/24/38 53/27/38 52/25/38 
f 39/26/39 52/25/39 15/8/39 14/9/39 
f 52/25/40 53/27/40 18/7/40 15/8/40 
f 9/6/41 8/4/41 54/10/41 41/11/41 
f 8/4/42 7/1/42 55/12/42 54/10/42 
f 41/11/43 54/10/43 56/13/43 43/14/43 
f 54/10/44 55/12/44 57/15/44 56/13/44 
f 43/14/45 56/13/45 58/16/45 45/17/45 
f 56/13/46 57/15/46 59/18/46 58/16/46 
f 45/17/47 58/16/47 60/3/47 47/5/47 
f 58/16/48 59/18/48 61/2/48 60/3/48 
f 47/5/49 60/3/49 62/19/49 49/20/49 
f 60/3/50 61/2/50 63/21/50 62/19/50 
f 49/20/51 62/19/51 64/22/51 51/23/51 
f 62/19/52 63/21/52 65/24/52 64/22/52 
f 51/23/53 64/22/53 66/25/53 53/26/53 
f 64/22/54 65/24/54 67/27/54 66/25/54 
f 53/26/55 66/25/55 16/8/55 18/9/55 
f 66/25/56 67/27/56 17/7/56 16/8/56 
f 7/6/57 2/4/57 68/10/57 55/11/57 
f 2/4/58 1/1/58 20/12/58 68/10/58 
f 55/11/59 68/10/59 69/13/59 57/14/59 
f 68/10/60 20/12/60 23/15/60 69/13/60 
f 57/14/61 69/13/61 70/16/61 59/17/61 
f 69/13/62 23/15/62 26/18/62 70/16/62 
f 59/17/63 70/16/63 71/3/63 61/5/63 
f 70/16/64 26/18/64 29/2/64 71/3/64 
f 61/5/65 71/3/65 72/19/65 63/20/65 
f 71/3/66 29/2/66 32/21/66 72/19/66 
f 63/20/67 72/19/67 73/22/67 65/23/67 
f 72/19/68 32/21/68 35/24/68 73/22/68 
f 65/23/69 73/22/69 74/25/69 67/26/69 
f 73/22/70 35/24/70 38/27/70 74/25/70 
f 67/26/71 74/25/71 13/8/71 17/9/71 
f 74/25/72 38/27/72 10/7/72 13/8/72 
# 72 polygons

