# 3ds Max Wavefront OBJ Exporter v0.97b - (c)2007 guruware
# File Created: 27.11.2014 15:36:42

mtllib pillar_2.mtl

#
# object Box001
#

v  9.2036 -4.4918 -7.0154
v  17.0175 -15.8601 -18.5160
v  26.5024 -0.2554 -31.8448
v  18.5198 24.0465 -20.0778
v  36.3528 2.9949 -34.6737
v  28.6852 15.6769 -23.1624
v  6.0360 -0.7762 -29.2562
v  15.9244 -4.3187 -43.0180
v  25.6208 5.3451 -45.9789
v  22.5910 133.5756 -22.3684
v  38.6718 154.5532 -32.7814
v  46.0127 138.3035 -51.1584
v  29.9304 126.6928 -40.7079
v  54.7342 127.2620 -8.3170
v  61.9122 106.4651 -26.7347
v  25.7528 135.3827 -69.5636
v  9.6504 151.0891 -59.1254
v  41.8470 149.6950 -45.0607
v  19.4169 40.7561 -25.5461
v  8.8577 23.4547 -31.8738
v  30.3476 17.0854 -14.2505
v  35.8611 58.0863 -32.7159
v  24.1916 40.5451 -12.4115
v  47.2297 35.0333 -22.2786
v  10.1675 67.0793 -7.4066
v  -2.0059 54.4084 -19.1984
v  22.7198 60.6457 -23.2968
v  33.4688 87.9368 -24.6724
v  20.3236 68.2415 -25.1950
v  46.5052 65.2565 -14.9377
v  29.1450 89.3736 -11.1296
v  15.2274 89.8804 -23.1991
v  43.0083 80.4227 -12.3430
v  24.8520 99.2190 -34.5645
v  10.1225 111.2164 -24.2312
v  39.4698 94.6632 -6.2332
v  28.9474 114.2185 -11.7561
v  13.5847 115.2554 -16.8371
v  44.3307 118.0906 -12.3863
v  43.2301 9.1719 -26.5440
v  51.3341 17.2046 -38.6138
v  51.7372 18.7052 -35.4420
v  39.3404 21.9230 -48.3725
v  28.9951 44.3278 -37.4484
v  37.1293 32.3779 -51.2242
v  47.7462 72.9228 -29.8622
v  42.7465 71.2122 -44.8705
v  35.8061 93.6504 -28.1402
v  49.3388 97.6675 -44.0830
v  60.6501 88.8281 -22.9812
v  44.5932 109.5451 -39.6683
v  39.4480 102.2289 -30.0159
v  45.0103 123.5174 -47.5434
v  40.7015 19.4800 -50.2430
v  30.0139 25.1687 -56.4774
v  27.9826 44.9045 -59.3197
v  16.3241 48.6967 -38.8796
v  24.9150 69.7277 -35.9684
v  12.4993 63.1425 -47.5212
v  29.6226 80.1597 -54.9029
v  16.5265 66.7419 -55.1181
v  35.3366 92.8994 -42.9645
v  21.4504 82.1700 -54.9252
v  29.9176 97.1648 -68.0331
v  15.2993 96.8696 -57.7013
v  29.6231 123.8139 -46.8688
v  14.2405 121.3573 -51.9635
v  22.1865 5.3193 -43.9651
v  29.1788 24.6314 -25.8431
v  4.6798 38.4037 -33.3867
v  21.5598 56.3676 -40.1209
v  8.1704 73.3379 -39.0764
v  31.4653 90.0605 -40.9735
v  8.9557 96.2549 -34.4072
# 74 vertices

vn 0.8212 -0.0086 0.5706
vn 0.1301 -0.4881 0.8630
vn -0.0307 -0.9048 -0.4248
vn 0.4401 -0.8251 -0.3544
vn -0.7451 0.3881 -0.5424
vn 0.9015 0.4264 -0.0736
vn 0.2746 0.9310 0.2406
vn -0.8024 -0.4819 0.3521
vn -0.7200 0.3959 0.5699
vn -0.4851 -0.0967 0.8691
vn 0.7530 -0.5940 -0.2833
vn -0.0220 0.4130 0.9105
vn 0.3362 0.0000 0.9418
vn -0.5904 -0.3439 -0.7302
vn -0.6729 0.6563 -0.3413
vn 0.2014 -0.0300 0.9790
vn 0.0078 -0.5563 0.8309
vn -0.7707 -0.5920 0.2355
vn 0.2365 0.6429 0.7285
vn -0.5451 0.3655 0.7545
vn -0.2450 -0.7913 0.5601
vn -0.6719 -0.1571 0.7238
vn -0.1307 0.4433 0.8868
vn -0.3264 0.4223 0.8456
vn -0.2553 -0.8293 0.4971
vn 0.5801 -0.7182 -0.3842
vn 0.6949 -0.2204 0.6845
vn 0.9878 0.0477 -0.1481
vn 0.6716 0.5932 -0.4439
vn 0.8036 0.5158 -0.2969
vn 0.4854 -0.7957 0.3622
vn 0.8846 -0.3766 0.2750
vn 0.9190 0.3852 0.0836
vn 0.9579 0.0942 0.2711
vn 0.4163 -0.9088 -0.0276
vn 0.4972 -0.6725 -0.5482
vn 0.8855 0.4431 0.1401
vn 0.3590 0.6417 0.6777
vn 0.1231 -0.6919 0.7114
vn 0.6321 -0.2630 -0.7289
vn 0.4824 -0.6809 -0.5510
vn -0.4162 -0.2054 -0.8858
vn 0.8089 0.5677 -0.1528
vn -0.5799 -0.1743 -0.7958
vn 0.8440 0.3583 -0.3992
vn -0.3609 0.2709 -0.8924
vn -0.4333 -0.1367 -0.8908
vn 0.6559 -0.7349 -0.1727
vn 0.3332 0.1949 -0.9225
vn 0.0922 0.3643 -0.9267
vn 0.7450 -0.2959 -0.5979
vn 0.3136 -0.7191 -0.6201
vn 0.6010 0.2469 -0.7602
vn -0.1935 0.4528 -0.8704
vn 0.6536 -0.2590 -0.7112
vn -0.3708 -0.5928 -0.7149
vn 0.4591 0.5206 0.7199
vn -0.8675 -0.3117 -0.3876
vn -0.9910 -0.1305 -0.0293
vn 0.1812 0.6504 -0.7376
vn 0.0163 -0.4851 -0.8743
vn -0.5147 -0.6609 0.5462
vn -0.1403 0.6388 0.7565
vn -0.6016 0.4888 -0.6318
vn -0.8993 -0.2205 -0.3777
vn -0.7568 -0.4029 0.5147
vn -0.8152 0.4906 0.3078
vn -0.7083 0.2889 -0.6441
vn -0.8141 -0.5308 -0.2357
vn 0.2767 -0.5551 0.7844
vn -0.6218 0.3284 0.7110
vn -0.8297 0.4213 -0.3663
# 72 vertex normals

vt 1.0000 0.0000 0.0000
vt 1.0000 0.5000 0.0000
vt 0.5000 0.5000 0.0000
vt 0.5000 0.0000 0.0000
vt 0.0000 0.5000 0.0000
vt 0.0000 0.0000 0.0000
vt 1.0000 1.0000 0.0000
vt 0.5000 1.0000 0.0000
vt 0.0000 1.0000 0.0000
vt 0.5000 0.1250 0.0000
vt 0.0000 0.1250 0.0000
vt 1.0000 0.1250 0.0000
vt 0.5000 0.2500 0.0000
vt 0.0000 0.2500 0.0000
vt 1.0000 0.2500 0.0000
vt 0.5000 0.3750 0.0000
vt 0.0000 0.3750 0.0000
vt 1.0000 0.3750 0.0000
vt 0.5000 0.6250 0.0000
vt 0.0000 0.6250 0.0000
vt 1.0000 0.6250 0.0000
vt 0.5000 0.7500 0.0000
vt 0.0000 0.7500 0.0000
vt 1.0000 0.7500 0.0000
vt 0.5000 0.8750 0.0000
vt 0.0000 0.8750 0.0000
vt 1.0000 0.8750 0.0000
# 27 texture coords

g Box001
usemtl wire_225088199
s off
f 1/1/1 2/2/1 3/3/1 4/4/1 
f 4/4/2 3/3/2 5/5/2 6/6/2 
f 2/2/3 7/7/3 8/8/3 3/3/3 
f 3/3/4 8/8/4 9/9/4 5/5/4 
f 10/6/5 11/4/5 12/3/5 13/5/5 
f 11/4/6 14/1/6 15/2/6 12/3/6 
f 13/5/7 12/3/7 16/8/7 17/9/7 
f 12/3/8 15/2/8 18/7/8 16/8/8 
f 1/6/9 4/4/9 19/10/9 20/11/9 
f 4/4/10 6/1/10 21/12/10 19/10/10 
f 20/11/11 19/10/11 22/13/11 23/14/11 
f 19/10/12 21/12/12 24/15/12 22/13/12 
f 23/14/13 22/13/13 25/16/13 26/17/13 
f 22/13/14 24/15/14 27/18/14 25/16/14 
f 26/17/15 25/16/15 28/3/15 29/5/15 
f 25/16/16 27/18/16 30/2/16 28/3/16 
f 29/5/17 28/3/17 31/19/17 32/20/17 
f 28/3/18 30/2/18 33/21/18 31/19/18 
f 32/20/19 31/19/19 34/22/19 35/23/19 
f 31/19/20 33/21/20 36/24/20 34/22/20 
f 35/23/21 34/22/21 37/25/21 38/26/21 
f 34/22/22 36/24/22 39/27/22 37/25/22 
f 38/26/23 37/25/23 11/8/23 10/9/23 
f 37/25/24 39/27/24 14/7/24 11/8/24 
f 6/6/25 5/4/25 40/10/25 21/11/25 
f 5/4/26 9/1/26 41/12/26 40/10/26 
f 21/11/27 40/10/27 42/13/27 24/14/27 
f 40/10/28 41/12/28 43/15/28 42/13/28 
f 24/14/29 42/13/29 44/16/29 27/17/29 
f 42/13/30 43/15/30 45/18/30 44/16/30 
f 27/17/31 44/16/31 46/3/31 30/5/31 
f 44/16/32 45/18/32 47/2/32 46/3/32 
f 30/5/33 46/3/33 48/19/33 33/20/33 
f 46/3/34 47/2/34 49/21/34 48/19/34 
f 33/20/35 48/19/35 50/22/35 36/23/35 
f 48/19/36 49/21/36 51/24/36 50/22/36 
f 36/23/37 50/22/37 52/25/37 39/26/37 
f 50/22/38 51/24/38 53/27/38 52/25/38 
f 39/26/39 52/25/39 15/8/39 14/9/39 
f 52/25/40 53/27/40 18/7/40 15/8/40 
f 9/6/41 8/4/41 54/10/41 41/11/41 
f 8/4/42 7/1/42 55/12/42 54/10/42 
f 41/11/43 54/10/43 56/13/43 43/14/43 
f 54/10/44 55/12/44 57/15/44 56/13/44 
f 43/14/45 56/13/45 58/16/45 45/17/45 
f 56/13/46 57/15/46 59/18/46 58/16/46 
f 45/17/47 58/16/47 60/3/47 47/5/47 
f 58/16/48 59/18/48 61/2/48 60/3/48 
f 47/5/49 60/3/49 62/19/49 49/20/49 
f 60/3/50 61/2/50 63/21/50 62/19/50 
f 49/20/51 62/19/51 64/22/51 51/23/51 
f 62/19/52 63/21/52 65/24/52 64/22/52 
f 51/23/53 64/22/53 66/25/53 53/26/53 
f 64/22/54 65/24/54 67/27/54 66/25/54 
f 53/26/55 66/25/55 16/8/55 18/9/55 
f 66/25/56 67/27/56 17/7/56 16/8/56 
f 7/6/57 2/4/57 68/10/57 55/11/57 
f 2/4/58 1/1/58 20/12/58 68/10/58 
f 55/11/59 68/10/59 69/13/59 57/14/59 
f 68/10/60 20/12/60 23/15/60 69/13/60 
f 57/14/61 69/13/61 70/16/61 59/17/61 
f 69/13/62 23/15/62 26/18/62 70/16/62 
f 59/17/63 70/16/63 71/3/63 61/5/63 
f 70/16/64 26/18/64 29/2/64 71/3/64 
f 61/5/65 71/3/65 72/19/65 63/20/65 
f 71/3/66 29/2/66 32/21/66 72/19/66 
f 63/20/67 72/19/67 73/22/67 65/23/67 
f 72/19/68 32/21/68 35/24/68 73/22/68 
f 65/23/69 73/22/69 74/25/69 67/26/69 
f 73/22/70 35/24/70 38/27/70 74/25/70 
f 67/26/71 74/25/71 13/8/71 17/9/71 
f 74/25/72 38/27/72 10/7/72 13/8/72 
# 72 polygons

