# 3ds Max Wavefront OBJ Exporter v0.97b - (c)2007 guruware
# File Created: 27.05.2015 10:43:41

mtllib 1.mtl

#
# object Cylinder006
#

v  11.7910 0.9369 1.6909
v  11.8318 1.6671 -2.1872
v  14.0984 -0.3124 -0.6166
v  15.6690 0.9769 1.6500
v  7.9129 -1.2079 3.8817
v  8.6140 -0.2755 1.1751
v  9.6001 -0.0318 5.5689
v  6.8223 0.1488 6.6595
v  12.3067 0.1959 4.8678
v  14.7335 5.7181 -1.1492
v  13.3067 7.2462 -0.1297
v  13.8274 7.7099 0.1943
v  9.2457 6.0173 0.0061
v  5.5458 4.8829 3.5167
v  7.7555 6.0213 5.5016
v  9.9129 5.9311 7.5227
v  13.2433 5.9599 4.4333
v  13.2380 11.9347 -0.2072
v  17.5842 13.3957 2.7155
v  10.2250 13.9774 -4.5213
v  7.7907 12.3087 -0.1096
v  9.8805 10.9788 3.7017
v  8.1098 11.9500 5.5145
v  9.5437 11.8641 3.4408
v  13.5571 11.8490 5.0736
v  10.6390 18.3695 2.6302
v  12.7118 19.3733 4.8654
v  7.5160 20.5519 1.4751
v  5.3522 18.6296 2.0687
v  5.2352 17.0441 3.9179
v  7.1402 17.9381 5.9446
v  10.4720 17.8108 7.0251
v  12.4270 17.8521 6.1259
v  13.2403 25.2955 0.4303
v  15.8304 25.0950 2.5690
v  10.4437 27.4208 -1.5259
v  8.3103 24.9529 -0.2239
v  8.8582 23.1056 3.1491
v  8.9821 23.9601 4.4784
v  10.0107 23.7921 4.3093
v  13.9122 23.9722 4.5617
v  13.1360 32.1721 -0.6816
v  11.9410 30.5612 -0.1927
v  12.6139 34.2150 3.2397
v  8.8350 31.0307 2.1900
v  5.8584 29.3549 2.7620
v  8.8799 30.0208 6.0424
v  12.4603 29.8156 6.6106
v  13.1809 30.2187 2.2802
v  8.3577 37.7240 4.8576
v  12.2598 36.0934 5.0621
v  6.8851 38.9399 6.1742
v  5.0342 36.6239 3.7970
v  7.5596 35.8519 3.2334
v  11.8718 36.1259 6.2176
v  14.2281 35.8744 10.4503
v  15.1954 36.4272 8.4355
v  12.4328 42.0508 2.0522
v  12.0688 42.4187 3.5974
v  12.0314 42.1501 1.3414
v  10.5113 41.9506 2.5930
v  9.3514 42.1858 4.0538
v  9.1631 42.1762 4.5862
v  9.8525 41.9576 4.4282
v  11.0846 42.3937 4.3126
v  7.8056 48.0691 5.3003
v  7.8047 48.0644 5.3077
v  7.8009 48.0717 5.2996
v  7.7868 48.0672 5.3064
v  7.7782 48.0616 5.3170
v  7.7759 48.0543 5.3203
v  7.7806 48.0516 5.3208
v  7.7946 48.0562 5.3141
v  7.7915 48.0629 5.3122
# 74 vertices

vn -0.3406 -0.9246 0.1707
vn 0.3832 -0.9039 -0.1900
vn 0.3883 -0.8885 0.2444
vn 0.0140 -0.9722 -0.2339
vn 0.9842 0.1097 -0.1391
vn 0.2015 0.1031 -0.9741
vn -0.4420 0.1768 -0.8794
vn -0.7731 -0.1798 -0.6083
vn -0.9601 -0.0793 0.2680
vn -0.1876 -0.0453 0.9812
vn 0.5298 -0.1609 0.8327
vn 0.8811 0.1809 0.4370
vn 0.8029 0.0019 -0.5961
vn 0.6105 0.0097 -0.7919
vn -0.2972 -0.4369 -0.8490
vn -0.9658 0.2206 -0.1366
vn -0.9295 0.3564 -0.0948
vn 0.0298 0.3183 0.9475
vn 0.1868 0.2701 0.9445
vn 0.8497 -0.4109 0.3304
vn 0.3959 0.5287 -0.7508
vn 0.7363 0.5532 -0.3896
vn -0.7667 0.0945 -0.6350
vn -0.8683 -0.4942 0.0426
vn -0.8794 -0.4135 0.2359
vn 0.1807 -0.3071 0.9344
vn -0.1125 -0.3545 0.9283
vn 0.6022 0.0877 0.7935
vn 0.6408 -0.4895 -0.5913
vn 0.1749 -0.4006 -0.8994
vn -0.0537 -0.3447 -0.9372
vn -0.7711 0.4974 0.3976
vn -0.8553 0.4308 0.2878
vn -0.1705 0.3352 0.9266
vn 0.0919 0.3190 0.9433
vn 0.8799 -0.1969 0.4324
vn 0.9156 0.1795 -0.3597
vn -0.2025 0.2758 -0.9396
vn -0.5092 0.4905 -0.7072
vn -0.8199 -0.0697 -0.5683
vn -0.7608 -0.2440 0.6013
vn -0.1057 -0.2788 0.9545
vn 0.6654 -0.0924 0.7407
vn 0.8506 0.4460 0.2787
vn 0.7710 0.5715 -0.2809
vn -0.5503 -0.7836 0.2884
vn 0.0832 0.4568 -0.8856
vn -0.4385 0.0762 -0.8955
vn -0.6514 0.2007 0.7317
vn -0.6293 -0.0101 0.7771
vn 0.8952 -0.4098 0.1751
vn 0.7573 0.3668 -0.5403
vn 0.2677 -0.4333 -0.8606
vn -0.4678 -0.2735 -0.8404
vn 0.6162 -0.7860 -0.0510
vn -0.4390 0.2953 0.8486
vn -0.6489 0.0017 0.7609
vn -0.8027 -0.0952 0.5888
vn 0.2843 0.7189 0.6343
vn 0.8934 0.1125 -0.4351
vn 0.8104 0.5836 0.0510
vn 0.6834 0.6690 -0.2922
vn -0.6377 0.0561 -0.7682
vn -0.7867 -0.0772 -0.6125
vn -0.9262 -0.1726 -0.3351
vn 0.1976 -0.0741 0.9775
vn 0.1317 -0.0968 0.9865
vn 0.5728 0.1872 0.7980
vn 0.1813 0.6359 0.7502
vn 0.1312 0.7586 0.6382
vn 0.2051 0.6225 0.7552
vn 0.2434 0.4219 0.8733
# 72 vertex normals

vt 0.5000 0.0000 0.0000
vt 0.0000 0.0000 1.0000
vt -0.1250 0.0000 1.0000
vt 0.0902 0.0000 0.5470
vt 0.2500 0.0000 1.0000
vt 0.1250 0.0000 1.0000
vt 0.5000 0.0000 1.0000
vt 0.3750 0.0000 1.0000
vt 0.7500 0.0000 1.0000
vt 0.6250 0.0000 1.0000
vt 0.8750 0.0000 1.0000
vt 0.8750 0.1250 1.0000
vt 0.7500 0.1250 1.0000
vt 0.0000 0.1250 1.0000
vt -0.1250 0.1250 1.0000
vt 0.1250 0.1250 1.0000
vt 0.2500 0.1250 1.0000
vt 0.3750 0.1250 1.0000
vt 0.5000 0.1250 1.0000
vt 0.6250 0.1250 1.0000
vt 0.8750 0.2500 1.0000
vt 0.7500 0.2500 1.0000
vt 0.0000 0.2500 1.0000
vt -0.1250 0.2500 1.0000
vt 0.1250 0.2500 1.0000
vt 0.2500 0.2500 1.0000
vt 0.3750 0.2500 1.0000
vt 0.5000 0.2500 1.0000
vt 0.6250 0.2500 1.0000
vt 0.8750 0.3750 1.0000
vt 0.7500 0.3750 1.0000
vt 0.0000 0.3750 1.0000
vt -0.1250 0.3750 1.0000
vt 0.1250 0.3750 1.0000
vt 0.2500 0.3750 1.0000
vt 0.3750 0.3750 1.0000
vt 0.5000 0.3750 1.0000
vt 0.6250 0.3750 1.0000
vt 0.8750 0.5000 1.0000
vt 0.7500 0.5000 1.0000
vt 0.0000 0.5000 1.0000
vt -0.1250 0.5000 1.0000
vt 0.1250 0.5000 1.0000
vt 0.2500 0.5000 1.0000
vt 0.3750 0.5000 1.0000
vt 0.5000 0.5000 1.0000
vt 0.6250 0.5000 1.0000
vt 0.8750 0.6250 1.0000
vt 0.7500 0.6250 1.0000
vt 0.0000 0.6250 1.0000
vt -0.1250 0.6250 1.0000
vt 0.1250 0.6250 1.0000
vt 0.2500 0.6250 1.0000
vt 0.3750 0.6250 1.0000
vt 0.5000 0.6250 1.0000
vt 0.6250 0.6250 1.0000
vt 0.8750 0.7500 1.0000
vt 0.7500 0.7500 1.0000
vt 0.0000 0.7500 1.0000
vt -0.1250 0.7500 1.0000
vt 0.1250 0.7500 1.0000
vt 0.2500 0.7500 1.0000
vt 0.3750 0.7500 1.0000
vt 0.5000 0.7500 1.0000
vt 0.6250 0.7500 1.0000
vt 0.8750 0.8750 1.0000
vt 0.7500 0.8750 1.0000
vt 0.0000 0.8750 1.0000
vt -0.1250 0.8750 1.0000
vt 0.1250 0.8750 1.0000
vt 0.2500 0.8750 1.0000
vt 0.3750 0.8750 1.0000
vt 0.5000 0.8750 1.0000
vt 0.6250 0.8750 1.0000
vt 0.8750 1.0000 1.0000
vt 0.7500 1.0000 1.0000
vt 0.0000 1.0000 1.0000
vt -0.1250 1.0000 1.0000
vt 0.1250 1.0000 1.0000
vt 0.2500 1.0000 1.0000
vt 0.3750 1.0000 1.0000
vt 0.5000 1.0000 1.0000
vt 0.6250 1.0000 1.0000
vt 0.5000 1.0000 0.0000
# 84 texture coords

g Cylinder006
usemtl wire_088199225
s off
f 1/1/1 2/2/1 3/3/1 4/4/1 
f 1/1/2 5/5/2 6/6/2 2/2/2 
f 1/1/3 7/7/3 8/8/3 5/5/3 
f 1/1/4 4/9/4 9/10/4 7/7/4 
f 4/9/5 3/11/5 10/12/5 11/13/5 
f 3/3/6 2/2/6 12/14/6 10/15/6 
f 2/2/7 6/6/7 13/16/7 12/14/7 
f 6/6/8 5/5/8 14/17/8 13/16/8 
f 5/5/9 8/8/9 15/18/9 14/17/9 
f 8/8/10 7/7/10 16/19/10 15/18/10 
f 7/7/11 9/10/11 17/20/11 16/19/11 
f 9/10/12 4/9/12 11/13/12 17/20/12 
f 11/13/13 10/12/13 18/21/13 19/22/13 
f 10/15/14 12/14/14 20/23/14 18/24/14 
f 12/14/15 13/16/15 21/25/15 20/23/15 
f 13/16/16 14/17/16 22/26/16 21/25/16 
f 14/17/17 15/18/17 23/27/17 22/26/17 
f 15/18/18 16/19/18 24/28/18 23/27/18 
f 16/19/19 17/20/19 25/29/19 24/28/19 
f 17/20/20 11/13/20 19/22/20 25/29/20 
f 19/22/21 18/21/21 26/30/21 27/31/21 
f 18/24/22 20/23/22 28/32/22 26/33/22 
f 20/23/23 21/25/23 29/34/23 28/32/23 
f 21/25/24 22/26/24 30/35/24 29/34/24 
f 22/26/25 23/27/25 31/36/25 30/35/25 
f 23/27/26 24/28/26 32/37/26 31/36/26 
f 24/28/27 25/29/27 33/38/27 32/37/27 
f 25/29/28 19/22/28 27/31/28 33/38/28 
f 27/31/29 26/30/29 34/39/29 35/40/29 
f 26/33/30 28/32/30 36/41/30 34/42/30 
f 28/32/31 29/34/31 37/43/31 36/41/31 
f 29/34/32 30/35/32 38/44/32 37/43/32 
f 30/35/33 31/36/33 39/45/33 38/44/33 
f 31/36/34 32/37/34 40/46/34 39/45/34 
f 32/37/35 33/38/35 41/47/35 40/46/35 
f 33/38/36 27/31/36 35/40/36 41/47/36 
f 35/40/37 34/39/37 42/48/37 43/49/37 
f 34/42/38 36/41/38 44/50/38 42/51/38 
f 36/41/39 37/43/39 45/52/39 44/50/39 
f 37/43/40 38/44/40 46/53/40 45/52/40 
f 38/44/41 39/45/41 47/54/41 46/53/41 
f 39/45/42 40/46/42 48/55/42 47/54/42 
f 40/46/43 41/47/43 49/56/43 48/55/43 
f 41/47/44 35/40/44 43/49/44 49/56/44 
f 43/49/45 42/48/45 50/57/45 51/58/45 
f 42/51/46 44/50/46 52/59/46 50/60/46 
f 44/50/47 45/52/47 53/61/47 52/59/47 
f 45/52/48 46/53/48 54/62/48 53/61/48 
f 46/53/49 47/54/49 55/63/49 54/62/49 
f 47/54/50 48/55/50 56/64/50 55/63/50 
f 48/55/51 49/56/51 57/65/51 56/64/51 
f 49/56/52 43/49/52 51/58/52 57/65/52 
f 51/58/53 50/57/53 58/66/53 59/67/53 
f 50/60/54 52/59/54 60/68/54 58/69/54 
f 52/59/55 53/61/55 61/70/55 60/68/55 
f 53/61/56 54/62/56 62/71/56 61/70/56 
f 54/62/57 55/63/57 63/72/57 62/71/57 
f 55/63/58 56/64/58 64/73/58 63/72/58 
f 56/64/59 57/65/59 65/74/59 64/73/59 
f 57/65/60 51/58/60 59/67/60 65/74/60 
f 59/67/61 58/66/61 66/75/61 67/76/61 
f 58/69/62 60/68/62 68/77/62 66/78/62 
f 60/68/63 61/70/63 69/79/63 68/77/63 
f 61/70/64 62/71/64 70/80/64 69/79/64 
f 62/71/65 63/72/65 71/81/65 70/80/65 
f 63/72/66 64/73/66 72/82/66 71/81/66 
f 64/73/67 65/74/67 73/83/67 72/82/67 
f 65/74/68 59/67/68 67/76/68 73/83/68 
f 74/84/69 73/83/69 67/76/69 66/75/69 
f 74/84/70 66/78/70 68/77/70 69/79/70 
f 74/84/71 69/79/71 70/80/71 71/81/71 
f 74/84/72 71/81/72 72/82/72 73/83/72 
# 72 polygons

