# 3ds Max Wavefront OBJ Exporter v0.97b - (c)2007 guruware
# File Created: 27.05.2015 10:43:48

mtllib 2.mtl

#
# object Cylinder001
#

v  -4.1163 -0.0460 0.2623
v  -3.4993 -0.4337 -3.6157
v  -1.1680 0.0334 -2.6859
v  -0.2382 0.5580 -0.3547
v  -7.9943 -0.9092 1.1440
v  -6.6524 -0.0408 -2.3819
v  -4.9979 0.2914 4.1404
v  -6.9564 -0.0856 3.1024
v  -1.4720 0.1013 2.7985
v  -1.6896 6.2427 -2.3990
v  -1.0039 6.7107 0.5843
v  -4.7514 5.8360 -3.0405
v  -7.1774 6.2107 -3.2843
v  -8.7649 5.2744 -1.3522
v  -6.3870 5.8861 2.1609
v  -2.8907 6.2107 4.6428
v  -0.8992 6.0824 3.1150
v  -1.0810 12.4781 -2.8793
v  -1.5794 12.8368 -0.9641
v  -3.3185 12.1375 -2.2573
v  -6.5283 12.4689 -2.8978
v  -9.2831 11.4440 -1.3082
v  -6.5902 11.8731 2.1855
v  -2.9784 12.1377 4.8961
v  -1.1429 12.0651 2.1855
v  -1.2781 18.7139 -2.7982
v  0.5261 18.9040 0.2195
v  -3.8677 18.4457 -4.6182
v  -6.5648 18.6972 -3.1611
v  -6.9505 17.6106 -0.2582
v  -6.5062 17.9192 2.3786
v  -3.9304 18.0849 2.9724
v  -1.2195 18.0296 2.6823
v  -2.2694 24.8986 -1.5143
v  -2.0722 24.8774 0.3846
v  -4.0736 24.7329 -1.4586
v  -7.1994 24.9272 -0.8672
v  -9.0443 23.8162 1.4278
v  -7.3896 24.0464 3.5991
v  -4.8864 24.0657 4.9656
v  -2.4595 23.9661 3.4538
v  -3.1009 30.9555 0.0777
v  -0.8578 30.7252 1.9463
v  -5.1699 30.9606 -1.8552
v  -7.4019 31.0342 -1.8836
v  -6.9404 30.0993 0.4541
v  -5.4770 30.2261 2.0882
v  -3.6782 30.0963 4.5712
v  -1.1760 29.9262 4.5669
v  -0.9755 36.7872 -0.5300
v  -0.5439 36.4017 1.6168
v  -2.7825 36.9956 -1.8382
v  -4.2991 36.9708 -0.6499
v  -5.2441 36.4526 0.9216
v  -4.6824 36.3368 2.0350
v  -2.8562 36.1910 2.4160
v  -1.3589 36.0323 2.6405
v  -3.2648 42.5271 2.0871
v  -2.5973 42.2846 2.7991
v  -4.2375 42.8022 1.8638
v  -5.1863 42.8748 2.3579
v  -5.3147 42.7503 3.3816
v  -4.3256 42.3751 4.3630
v  -3.1560 42.3657 4.3871
v  -2.4041 42.3590 3.6347
v  -4.8881 48.6440 3.9782
v  -4.8837 48.6431 3.9890
v  -4.8979 48.6423 3.9709
v  -4.9068 48.6400 3.9711
v  -4.9102 48.6370 3.9783
v  -4.9064 48.6369 3.9852
v  -4.8965 48.6387 3.9924
v  -4.8877 48.6410 3.9923
v  -4.8969 48.6401 3.9836
# 74 vertices

vn 0.1651 -0.9765 0.1382
vn 0.0524 -0.9973 -0.0523
vn 0.2034 -0.9605 0.1897
vn 0.0570 -0.9984 -0.0002
vn 0.9422 0.1262 -0.3105
vn 0.2628 0.1015 -0.9595
vn -0.1813 -0.0503 -0.9821
vn -0.8256 -0.2229 -0.5184
vn -0.8563 0.1249 0.5011
vn -0.5499 0.1509 0.8215
vn 0.4483 -0.1581 0.8798
vn 0.9810 -0.0044 0.1940
vn 0.9993 -0.0085 -0.0367
vn 0.0003 0.0236 -0.9997
vn 0.1626 0.0634 -0.9847
vn -0.6386 0.0327 -0.7688
vn -0.8055 -0.0501 0.5905
vn -0.5878 -0.0325 0.8084
vn 0.7424 0.0573 0.6675
vn 0.9954 0.0494 -0.0824
vn 0.9628 -0.1220 -0.2410
vn 0.2567 -0.1548 -0.9540
vn -0.1543 -0.2051 -0.9665
vn -0.8449 0.1844 -0.5021
vn -0.8891 0.1285 0.4392
vn -0.4741 0.0901 0.8758
vn 0.5481 0.1430 0.8241
vn 0.9681 -0.1832 0.1709
vn 0.8806 0.2976 -0.3689
vn 0.3210 0.3387 -0.8845
vn -0.2844 0.3603 -0.8884
vn -0.9067 -0.0642 -0.4168
vn -0.8617 -0.2983 0.4103
vn -0.3361 -0.2834 0.8982
vn 0.3228 -0.1539 0.9339
vn 0.8751 0.2440 0.4179
vn 0.8375 0.1123 -0.5348
vn 0.4260 0.1504 -0.8921
vn -0.1099 -0.1220 -0.9864
vn -0.9649 0.1073 -0.2397
vn -0.7417 0.3461 0.5746
vn -0.6381 0.2698 0.7211
vn 0.2862 -0.1141 0.9514
vn 0.9752 -0.2142 0.0552
vn 0.7981 -0.2106 -0.5646
vn 0.6100 -0.2635 -0.7473
vn -0.2854 0.2235 -0.9320
vn -0.9348 0.3548 0.0191
vn -0.7977 0.1369 0.5873
vn -0.5952 0.2144 0.7745
vn -0.0261 0.3123 0.9496
vn 0.9492 0.0479 0.3109
vn 0.8813 0.4019 -0.2487
vn 0.4799 0.5278 -0.7008
vn -0.5265 0.3352 -0.7813
vn -0.9282 0.0874 -0.3618
vn -0.8102 -0.1920 0.5538
vn -0.1436 -0.3219 0.9358
vn 0.2096 -0.2002 0.9571
vn 0.9257 0.1711 0.3373
vn 0.7413 0.3638 -0.5640
vn 0.3066 0.3474 -0.8861
vn -0.4277 0.2581 -0.8663
vn -0.9901 0.0786 -0.1166
vn -0.7097 -0.0225 0.7042
vn -0.0261 0.0555 0.9981
vn 0.6855 0.2278 0.6915
vn 0.9022 0.3615 -0.2353
vn -0.3038 0.9293 0.2101
vn -0.2811 0.9398 0.1942
vn -0.3060 0.9272 0.2161
vn -0.2764 0.9468 0.1647
# 72 vertex normals

vt 0.5000 0.0000 0.0000
vt 0.8216 0.0000 0.5274
vt 0.8750 0.0000 1.0000
vt 0.7500 0.0000 1.0000
vt 0.2500 0.0000 1.0000
vt 0.1250 0.0000 1.0000
vt 0.0000 0.0000 1.0000
vt 0.5000 0.0000 1.0000
vt 0.3750 0.0000 1.0000
vt 0.6250 0.0000 1.0000
vt 0.8750 0.1250 1.0000
vt 0.7500 0.1250 1.0000
vt -0.1250 0.0000 1.0000
vt 0.0000 0.1250 1.0000
vt -0.1250 0.1250 1.0000
vt 0.1250 0.1250 1.0000
vt 0.2500 0.1250 1.0000
vt 0.3750 0.1250 1.0000
vt 0.5000 0.1250 1.0000
vt 0.6250 0.1250 1.0000
vt 0.8750 0.2500 1.0000
vt 0.7500 0.2500 1.0000
vt 0.0000 0.2500 1.0000
vt -0.1250 0.2500 1.0000
vt 0.1250 0.2500 1.0000
vt 0.2500 0.2500 1.0000
vt 0.3750 0.2500 1.0000
vt 0.5000 0.2500 1.0000
vt 0.6250 0.2500 1.0000
vt 0.8750 0.3750 1.0000
vt 0.7500 0.3750 1.0000
vt 0.0000 0.3750 1.0000
vt -0.1250 0.3750 1.0000
vt 0.1250 0.3750 1.0000
vt 0.2500 0.3750 1.0000
vt 0.3750 0.3750 1.0000
vt 0.5000 0.3750 1.0000
vt 0.6250 0.3750 1.0000
vt 0.8750 0.5000 1.0000
vt 0.7500 0.5000 1.0000
vt 0.0000 0.5000 1.0000
vt -0.1250 0.5000 1.0000
vt 0.1250 0.5000 1.0000
vt 0.2500 0.5000 1.0000
vt 0.3750 0.5000 1.0000
vt 0.5000 0.5000 1.0000
vt 0.6250 0.5000 1.0000
vt 0.8750 0.6250 1.0000
vt 0.7500 0.6250 1.0000
vt 0.0000 0.6250 1.0000
vt -0.1250 0.6250 1.0000
vt 0.1250 0.6250 1.0000
vt 0.2500 0.6250 1.0000
vt 0.3750 0.6250 1.0000
vt 0.5000 0.6250 1.0000
vt 0.6250 0.6250 1.0000
vt 0.8750 0.7500 1.0000
vt 0.7500 0.7500 1.0000
vt 0.0000 0.7500 1.0000
vt -0.1250 0.7500 1.0000
vt 0.1250 0.7500 1.0000
vt 0.2500 0.7500 1.0000
vt 0.3750 0.7500 1.0000
vt 0.5000 0.7500 1.0000
vt 0.6250 0.7500 1.0000
vt 0.8750 0.8750 1.0000
vt 0.7500 0.8750 1.0000
vt 0.0000 0.8750 1.0000
vt -0.1250 0.8750 1.0000
vt 0.1250 0.8750 1.0000
vt 0.2500 0.8750 1.0000
vt 0.3750 0.8750 1.0000
vt 0.5000 0.8750 1.0000
vt 0.6250 0.8750 1.0000
vt 0.8750 1.0000 1.0000
vt 0.7500 1.0000 1.0000
vt 0.0000 1.0000 1.0000
vt -0.1250 1.0000 1.0000
vt 0.1250 1.0000 1.0000
vt 0.2500 1.0000 1.0000
vt 0.3750 1.0000 1.0000
vt 0.5000 1.0000 1.0000
vt 0.6250 1.0000 1.0000
vt 0.5000 1.0000 0.0000
# 84 texture coords

g Cylinder001
usemtl wire_088199225
s off
f 1/1/1 2/2/1 3/3/1 4/4/1 
f 1/1/2 5/5/2 6/6/2 2/7/2 
f 1/1/3 7/8/3 8/9/3 5/5/3 
f 1/1/4 4/4/4 9/10/4 7/8/4 
f 4/4/5 3/3/5 10/11/5 11/12/5 
f 3/13/6 2/7/6 12/14/6 10/15/6 
f 2/7/7 6/6/7 13/16/7 12/14/7 
f 6/6/8 5/5/8 14/17/8 13/16/8 
f 5/5/9 8/9/9 15/18/9 14/17/9 
f 8/9/10 7/8/10 16/19/10 15/18/10 
f 7/8/11 9/10/11 17/20/11 16/19/11 
f 9/10/12 4/4/12 11/12/12 17/20/12 
f 11/12/13 10/11/13 18/21/13 19/22/13 
f 10/15/14 12/14/14 20/23/14 18/24/14 
f 12/14/15 13/16/15 21/25/15 20/23/15 
f 13/16/16 14/17/16 22/26/16 21/25/16 
f 14/17/17 15/18/17 23/27/17 22/26/17 
f 15/18/18 16/19/18 24/28/18 23/27/18 
f 16/19/19 17/20/19 25/29/19 24/28/19 
f 17/20/20 11/12/20 19/22/20 25/29/20 
f 19/22/21 18/21/21 26/30/21 27/31/21 
f 18/24/22 20/23/22 28/32/22 26/33/22 
f 20/23/23 21/25/23 29/34/23 28/32/23 
f 21/25/24 22/26/24 30/35/24 29/34/24 
f 22/26/25 23/27/25 31/36/25 30/35/25 
f 23/27/26 24/28/26 32/37/26 31/36/26 
f 24/28/27 25/29/27 33/38/27 32/37/27 
f 25/29/28 19/22/28 27/31/28 33/38/28 
f 27/31/29 26/30/29 34/39/29 35/40/29 
f 26/33/30 28/32/30 36/41/30 34/42/30 
f 28/32/31 29/34/31 37/43/31 36/41/31 
f 29/34/32 30/35/32 38/44/32 37/43/32 
f 30/35/33 31/36/33 39/45/33 38/44/33 
f 31/36/34 32/37/34 40/46/34 39/45/34 
f 32/37/35 33/38/35 41/47/35 40/46/35 
f 33/38/36 27/31/36 35/40/36 41/47/36 
f 35/40/37 34/39/37 42/48/37 43/49/37 
f 34/42/38 36/41/38 44/50/38 42/51/38 
f 36/41/39 37/43/39 45/52/39 44/50/39 
f 37/43/40 38/44/40 46/53/40 45/52/40 
f 38/44/41 39/45/41 47/54/41 46/53/41 
f 39/45/42 40/46/42 48/55/42 47/54/42 
f 40/46/43 41/47/43 49/56/43 48/55/43 
f 41/47/44 35/40/44 43/49/44 49/56/44 
f 43/49/45 42/48/45 50/57/45 51/58/45 
f 42/51/46 44/50/46 52/59/46 50/60/46 
f 44/50/47 45/52/47 53/61/47 52/59/47 
f 45/52/48 46/53/48 54/62/48 53/61/48 
f 46/53/49 47/54/49 55/63/49 54/62/49 
f 47/54/50 48/55/50 56/64/50 55/63/50 
f 48/55/51 49/56/51 57/65/51 56/64/51 
f 49/56/52 43/49/52 51/58/52 57/65/52 
f 51/58/53 50/57/53 58/66/53 59/67/53 
f 50/60/54 52/59/54 60/68/54 58/69/54 
f 52/59/55 53/61/55 61/70/55 60/68/55 
f 53/61/56 54/62/56 62/71/56 61/70/56 
f 54/62/57 55/63/57 63/72/57 62/71/57 
f 55/63/58 56/64/58 64/73/58 63/72/58 
f 56/64/59 57/65/59 65/74/59 64/73/59 
f 57/65/60 51/58/60 59/67/60 65/74/60 
f 59/67/61 58/66/61 66/75/61 67/76/61 
f 58/69/62 60/68/62 68/77/62 66/78/62 
f 60/68/63 61/70/63 69/79/63 68/77/63 
f 61/70/64 62/71/64 70/80/64 69/79/64 
f 62/71/65 63/72/65 71/81/65 70/80/65 
f 63/72/66 64/73/66 72/82/66 71/81/66 
f 64/73/67 65/74/67 73/83/67 72/82/67 
f 65/74/68 59/67/68 67/76/68 73/83/68 
f 74/84/69 73/83/69 67/76/69 66/75/69 
f 74/84/70 66/78/70 68/77/70 69/79/70 
f 74/84/71 69/79/71 70/80/71 71/81/71 
f 74/84/72 71/81/72 72/82/72 73/83/72 
# 72 polygons

