# 3ds Max Wavefront OBJ Exporter v0.97b - (c)2007 guruware
# File Created: 27.05.2015 10:43:55

mtllib 3.mtl

#
# object Cylinder003
#

v  -1.3763 2.6364 -16.3744
v  -5.9742 1.5799 -20.2524
v  -3.5469 -0.0268 -14.2038
v  2.5017 -1.8650 -11.7765
v  -5.2544 1.8542 -15.5754
v  -9.0313 -0.4718 -18.9653
v  -2.1753 2.3760 -12.4963
v  -4.2697 -0.4312 -13.4810
v  1.2146 0.2707 -8.7194
v  -0.5324 6.3714 -17.6627
v  -0.2561 4.2058 -13.4701
v  -4.8630 7.7383 -17.3010
v  -6.0202 5.5067 -16.4600
v  -8.0170 8.0257 -15.6933
v  -7.5484 5.7194 -10.7449
v  -2.9357 8.3590 -9.8719
v  -2.0606 5.9862 -12.3854
v  -1.3338 12.6750 -16.6709
v  1.9297 10.3057 -14.1706
v  -3.7717 14.0230 -20.0415
v  -6.7811 11.7218 -16.3597
v  -5.7739 14.1547 -11.2086
v  -6.1997 11.8380 -11.3308
v  -5.7730 14.3098 -12.4066
v  -0.7524 11.8363 -11.1296
v  0.2412 18.8105 -18.3298
v  3.7114 16.3780 -14.4360
v  -2.8771 20.4619 -21.1575
v  -5.0456 18.2739 -14.9268
v  -3.7652 20.2713 -11.9684
v  -6.9422 17.9568 -10.6156
v  -5.6262 20.2622 -14.3271
v  -1.6554 17.8246 -11.8554
v  -4.1283 24.7807 -13.2080
v  -0.0823 22.4086 -10.4824
v  -7.2760 27.0395 -17.8828
v  -9.0583 25.4220 -18.4007
v  -7.0544 26.3260 -16.2617
v  -4.5807 24.1866 -13.0401
v  -1.6947 26.2363 -10.1092
v  0.3494 23.9785 -8.8620
v  1.6562 30.2246 -17.6136
v  2.7375 28.5324 -14.7463
v  -1.8553 33.6698 -19.9855
v  -2.6448 33.3334 -16.9845
v  -3.3450 32.1829 -14.1294
v  -5.0308 30.6083 -12.5681
v  -3.8498 32.2423 -14.1807
v  -0.7298 30.4471 -13.8137
v  0.3795 35.9221 -13.9610
v  -0.0150 35.3066 -10.2729
v  -1.7400 39.8159 -17.3426
v  -2.9441 40.6097 -15.5042
v  -4.7152 37.9883 -12.6585
v  -6.9109 37.2217 -11.7348
v  -6.8249 38.2836 -11.2821
v  -3.5873 37.3687 -9.2478
v  -4.1909 43.6227 -10.8410
v  -2.2066 43.6047 -10.4475
v  -5.6334 45.0440 -10.4084
v  -6.1123 45.2282 -10.0099
v  -4.9240 44.1690 -9.5291
v  -2.8780 43.9297 -8.6522
v  -1.4292 44.3585 -8.5100
v  -0.9565 44.3868 -9.4592
v  -1.2211 50.4800 -7.0733
v  -1.2126 50.4773 -7.0663
v  -1.2351 50.4787 -7.0733
v  -1.2398 50.4707 -7.0660
v  -1.2391 50.4634 -7.0553
v  -1.2271 50.4584 -7.0462
v  -1.2132 50.4597 -7.0461
v  -1.2084 50.4677 -7.0536
v  -1.2258 50.4704 -7.0607
# 74 vertices

vn -0.3063 0.7310 0.6098
vn 0.3842 -0.9232 -0.0038
vn 0.4963 -0.7902 -0.3595
vn -0.6794 -0.7338 -0.0017
vn 0.5813 -0.3152 -0.7501
vn 0.5705 -0.2149 -0.7927
vn -0.7326 0.4631 -0.4987
vn -0.8833 -0.0714 0.4633
vn -0.9050 -0.4157 -0.0901
vn 0.0595 -0.3799 0.9231
vn -0.3029 -0.0192 0.9528
vn 0.8533 0.4973 0.1566
vn 0.8565 -0.0819 -0.5096
vn 0.3563 -0.1338 -0.9248
vn -0.6549 -0.1367 -0.7433
vn -0.9062 0.2345 -0.3520
vn -0.9549 0.2081 0.2121
vn -0.1888 0.2195 0.9572
vn 0.3141 0.1395 0.9391
vn 0.5766 -0.2011 0.7919
vn 0.5521 -0.2703 -0.7888
vn 0.6430 -0.2778 -0.7137
vn -0.9036 0.1883 -0.3849
vn -0.9554 0.2703 0.1187
vn -0.3620 0.0333 -0.9316
vn 0.9056 0.0844 0.4157
vn -0.2879 0.1860 0.9394
vn 0.5786 0.0243 0.8153
vn 0.6872 0.6684 -0.2847
vn 0.7151 0.6528 -0.2497
vn -0.6187 -0.3810 -0.6871
vn -0.8078 -0.1031 0.5804
vn -0.8613 -0.2878 -0.4187
vn 0.5431 -0.3818 0.7479
vn -0.6086 -0.1607 0.7770
vn 0.4459 -0.3866 0.8073
vn 0.2198 -0.6761 -0.7033
vn 0.2478 -0.6186 -0.7456
vn -0.7509 0.5840 -0.3083
vn -0.8156 0.5267 0.2395
vn -0.9370 0.1816 0.2984
vn -0.4363 0.1615 0.8852
vn 0.2438 0.6009 0.7612
vn 0.7897 0.2831 0.5443
vn 0.9547 0.2975 0.0070
vn 0.8485 0.3061 -0.4316
vn -0.9160 0.1042 -0.3874
vn -0.9114 -0.0232 -0.4108
vn -0.5447 0.0127 -0.8385
vn 0.6473 0.0231 0.7619
vn -0.4966 -0.5819 0.6441
vn -0.1007 -0.5681 0.8168
vn 0.8702 0.4095 -0.2740
vn 0.8385 0.5448 -0.0098
vn -0.6716 0.3411 -0.6577
vn -0.9602 -0.0862 -0.2657
vn -0.9660 0.2509 0.0629
vn 0.1711 -0.5033 0.8470
vn -0.2837 -0.0133 0.9588
vn 0.6553 0.0002 0.7554
vn 0.1843 0.4045 -0.8958
vn 0.1506 0.4183 -0.8957
vn -0.3212 0.6626 -0.6766
vn -0.4464 -0.0853 0.8907
vn -0.4047 -0.1176 0.9069
vn -0.0262 -0.2278 0.9733
vn 0.8887 -0.1338 0.4384
vn 0.4488 0.3369 -0.8277
vn -0.1623 0.7840 0.5992
vn -0.1426 0.7684 0.6239
vn -0.1737 0.7771 0.6050
vn -0.1191 0.7429 0.6587
# 72 vertex normals

vt 0.5000 0.0000 0.0000
vt 0.6484 0.0000 0.1436
vt 0.8750 0.0000 1.0000
vt 0.7500 0.0000 1.0000
vt 0.2500 0.0000 1.0000
vt 0.1250 0.0000 1.0000
vt 0.0000 0.0000 1.0000
vt 0.5000 0.0000 1.0000
vt 0.3750 0.0000 1.0000
vt 0.6250 0.0000 1.0000
vt 0.8750 0.1250 1.0000
vt 0.7500 0.1250 1.0000
vt -0.1250 0.0000 1.0000
vt 0.0000 0.1250 1.0000
vt -0.1250 0.1250 1.0000
vt 0.1250 0.1250 1.0000
vt 0.2500 0.1250 1.0000
vt 0.3750 0.1250 1.0000
vt 0.5000 0.1250 1.0000
vt 0.6250 0.1250 1.0000
vt 0.8750 0.2500 1.0000
vt 0.7500 0.2500 1.0000
vt 0.0000 0.2500 1.0000
vt -0.1250 0.2500 1.0000
vt 0.1250 0.2500 1.0000
vt 0.2500 0.2500 1.0000
vt 0.3750 0.2500 1.0000
vt 0.5000 0.2500 1.0000
vt 0.6250 0.2500 1.0000
vt 0.8750 0.3750 1.0000
vt 0.7500 0.3750 1.0000
vt 0.0000 0.3750 1.0000
vt -0.1250 0.3750 1.0000
vt 0.1250 0.3750 1.0000
vt 0.2500 0.3750 1.0000
vt 0.3750 0.3750 1.0000
vt 0.5000 0.3750 1.0000
vt 0.6250 0.3750 1.0000
vt 0.8750 0.5000 1.0000
vt 0.7500 0.5000 1.0000
vt 0.0000 0.5000 1.0000
vt -0.1250 0.5000 1.0000
vt 0.1250 0.5000 1.0000
vt 0.2500 0.5000 1.0000
vt 0.3750 0.5000 1.0000
vt 0.5000 0.5000 1.0000
vt 0.6250 0.5000 1.0000
vt 0.8750 0.6250 1.0000
vt 0.7500 0.6250 1.0000
vt 0.0000 0.6250 1.0000
vt -0.1250 0.6250 1.0000
vt 0.1250 0.6250 1.0000
vt 0.2500 0.6250 1.0000
vt 0.3750 0.6250 1.0000
vt 0.5000 0.6250 1.0000
vt 0.6250 0.6250 1.0000
vt 0.8750 0.7500 1.0000
vt 0.7500 0.7500 1.0000
vt 0.0000 0.7500 1.0000
vt -0.1250 0.7500 1.0000
vt 0.1250 0.7500 1.0000
vt 0.2500 0.7500 1.0000
vt 0.3750 0.7500 1.0000
vt 0.5000 0.7500 1.0000
vt 0.6250 0.7500 1.0000
vt 0.8750 0.8750 1.0000
vt 0.7500 0.8750 1.0000
vt 0.0000 0.8750 1.0000
vt -0.1250 0.8750 1.0000
vt 0.1250 0.8750 1.0000
vt 0.2500 0.8750 1.0000
vt 0.3750 0.8750 1.0000
vt 0.5000 0.8750 1.0000
vt 0.6250 0.8750 1.0000
vt 0.8750 1.0000 1.0000
vt 0.7500 1.0000 1.0000
vt 0.0000 1.0000 1.0000
vt -0.1250 1.0000 1.0000
vt 0.1250 1.0000 1.0000
vt 0.2500 1.0000 1.0000
vt 0.3750 1.0000 1.0000
vt 0.5000 1.0000 1.0000
vt 0.6250 1.0000 1.0000
vt 0.5000 1.0000 0.0000
# 84 texture coords

g Cylinder003
usemtl wire_088199225
s off
f 1/1/1 2/2/1 3/3/1 4/4/1 
f 1/1/2 5/5/2 6/6/2 2/7/2 
f 1/1/3 7/8/3 8/9/3 5/5/3 
f 1/1/4 4/4/4 9/10/4 7/8/4 
f 4/4/5 3/3/5 10/11/5 11/12/5 
f 3/13/6 2/7/6 12/14/6 10/15/6 
f 2/7/7 6/6/7 13/16/7 12/14/7 
f 6/6/8 5/5/8 14/17/8 13/16/8 
f 5/5/9 8/9/9 15/18/9 14/17/9 
f 8/9/10 7/8/10 16/19/10 15/18/10 
f 7/8/11 9/10/11 17/20/11 16/19/11 
f 9/10/12 4/4/12 11/12/12 17/20/12 
f 11/12/13 10/11/13 18/21/13 19/22/13 
f 10/15/14 12/14/14 20/23/14 18/24/14 
f 12/14/15 13/16/15 21/25/15 20/23/15 
f 13/16/16 14/17/16 22/26/16 21/25/16 
f 14/17/17 15/18/17 23/27/17 22/26/17 
f 15/18/18 16/19/18 24/28/18 23/27/18 
f 16/19/19 17/20/19 25/29/19 24/28/19 
f 17/20/20 11/12/20 19/22/20 25/29/20 
f 19/22/21 18/21/21 26/30/21 27/31/21 
f 18/24/22 20/23/22 28/32/22 26/33/22 
f 20/23/23 21/25/23 29/34/23 28/32/23 
f 21/25/24 22/26/24 30/35/24 29/34/24 
f 22/26/25 23/27/25 31/36/25 30/35/25 
f 23/27/26 24/28/26 32/37/26 31/36/26 
f 24/28/27 25/29/27 33/38/27 32/37/27 
f 25/29/28 19/22/28 27/31/28 33/38/28 
f 27/31/29 26/30/29 34/39/29 35/40/29 
f 26/33/30 28/32/30 36/41/30 34/42/30 
f 28/32/31 29/34/31 37/43/31 36/41/31 
f 29/34/32 30/35/32 38/44/32 37/43/32 
f 30/35/33 31/36/33 39/45/33 38/44/33 
f 31/36/34 32/37/34 40/46/34 39/45/34 
f 32/37/35 33/38/35 41/47/35 40/46/35 
f 33/38/36 27/31/36 35/40/36 41/47/36 
f 35/40/37 34/39/37 42/48/37 43/49/37 
f 34/42/38 36/41/38 44/50/38 42/51/38 
f 36/41/39 37/43/39 45/52/39 44/50/39 
f 37/43/40 38/44/40 46/53/40 45/52/40 
f 38/44/41 39/45/41 47/54/41 46/53/41 
f 39/45/42 40/46/42 48/55/42 47/54/42 
f 40/46/43 41/47/43 49/56/43 48/55/43 
f 41/47/44 35/40/44 43/49/44 49/56/44 
f 43/49/45 42/48/45 50/57/45 51/58/45 
f 42/51/46 44/50/46 52/59/46 50/60/46 
f 44/50/47 45/52/47 53/61/47 52/59/47 
f 45/52/48 46/53/48 54/62/48 53/61/48 
f 46/53/49 47/54/49 55/63/49 54/62/49 
f 47/54/50 48/55/50 56/64/50 55/63/50 
f 48/55/51 49/56/51 57/65/51 56/64/51 
f 49/56/52 43/49/52 51/58/52 57/65/52 
f 51/58/53 50/57/53 58/66/53 59/67/53 
f 50/60/54 52/59/54 60/68/54 58/69/54 
f 52/59/55 53/61/55 61/70/55 60/68/55 
f 53/61/56 54/62/56 62/71/56 61/70/56 
f 54/62/57 55/63/57 63/72/57 62/71/57 
f 55/63/58 56/64/58 64/73/58 63/72/58 
f 56/64/59 57/65/59 65/74/59 64/73/59 
f 57/65/60 51/58/60 59/67/60 65/74/60 
f 59/67/61 58/66/61 66/75/61 67/76/61 
f 58/69/62 60/68/62 68/77/62 66/78/62 
f 60/68/63 61/70/63 69/79/63 68/77/63 
f 61/70/64 62/71/64 70/80/64 69/79/64 
f 62/71/65 63/72/65 71/81/65 70/80/65 
f 63/72/66 64/73/66 72/82/66 71/81/66 
f 64/73/67 65/74/67 73/83/67 72/82/67 
f 65/74/68 59/67/68 67/76/68 73/83/68 
f 74/84/69 73/83/69 67/76/69 66/75/69 
f 74/84/70 66/78/70 68/77/70 69/79/70 
f 74/84/71 69/79/71 70/80/71 71/81/71 
f 74/84/72 71/81/72 72/82/72 73/83/72 
# 72 polygons

